<?xml version="1.0" encoding="utf-8"?>
<!-- Generator: Adobe Illustrator 25.0.0, SVG Export Plug-In . SVG Version: 6.00 Build 0)  -->
<svg version="1.1" id="Layer_1" xmlns="http://www.w3.org/2000/svg" xmlns:xlink="http://www.w3.org/1999/xlink" x="0px" y="0px"
	 width="462.6px" height="390px" viewBox="0 0 462.6 390" style="enable-background:new 0 0 462.6 390;" xml:space="preserve">
<style type="text/css">
	.st0{fill:none;stroke:#2467F4;stroke-width:2;stroke-miterlimit:10;}
	.st1{fill:none;stroke:#969696;stroke-miterlimit:10;stroke-dasharray:4,4;}
	.st2{fill:none;stroke:#969696;stroke-width:2;stroke-miterlimit:10;}
	.st3{fill:#FFFFFF;stroke:#2467F4;stroke-width:2;stroke-miterlimit:10;}
	.st4{fill:#EC7F4C;}
	.st5{fill:#F0A780;}
	.st6{fill:none;}
	.st7{fill:#53AF9F;}
	.st8{fill:#73D1C2;}
	.st9{fill:#FFFFFF;stroke:#000000;stroke-miterlimit:10;}
	.st10{fill:#303737;}
	.st11{fill:#5A6565;}
	.st12{fill:#F8E58C;}
	.st13{fill:#F5D356;}
	.st14{fill:#030506;}
	.st15{fill:#3F4747;}
	.st16{fill:#8D61C9;}
	.st17{fill:#E8559D;}
	.st18{fill:#7AB757;}
	.st19{filter:url(#Adobe_OpacityMaskFilter);}
	.st20{fill:#FFFFFF;}
	.st21{fill:url(#SVGID_1_);}
	.st22{fill:url(#SVGID_3_);}
	.st23{mask:url(#SVGID_2_);fill:url(#SVGID_4_);}
	.st24{fill:#032068;}
	.st25{clip-path:url(#SVGID_6_);}
	.st26{clip-path:url(#SVGID_8_);}
	.st27{fill:#273237;}
	.st28{clip-path:url(#SVGID_10_);}
	.st29{fill:#3E4B53;}
	.st30{clip-path:url(#SVGID_12_);}
	.st31{fill:#3881A1;}
	.st32{clip-path:url(#SVGID_14_);}
	.st33{fill:#4BABCC;}
	.st34{clip-path:url(#SVGID_16_);}
	.st35{fill:#357A69;}
	.st36{clip-path:url(#SVGID_18_);}
	.st37{fill:#4EAD99;}
	.st38{clip-path:url(#SVGID_20_);}
	.st39{clip-path:url(#SVGID_22_);}
	.st40{clip-path:url(#SVGID_24_);}
	.st41{clip-path:url(#SVGID_26_);}
	.st42{clip-path:url(#SVGID_28_);}
	.st43{clip-path:url(#SVGID_30_);}
	.st44{clip-path:url(#SVGID_32_);}
	.st45{font-family:'IBMPlexSans-Bold';}
	.st46{font-size:11px;}
	.st47{fill:#161616;}
</style>
<g id="Lines_x5F_backgroud">
	<line class="st0" x1="379.8" y1="180.3" x2="319.8" y2="180.3"/>
	<line class="st0" x1="254.8" y1="180.3" x2="193.8" y2="180.3"/>
	<line class="st0" x1="132.8" y1="180.3" x2="71.8" y2="180.3"/>
	<polyline class="st0" points="240.5,196.3 256.5,180.3 240.5,164.3 	"/>
	<polyline class="st0" points="114.8,196.3 130.8,180.3 114.8,164.3 	"/>
	<line id="Dashed_lin1_35_" class="st1" x1="288.2" y1="158.8" x2="288.2" y2="119"/>
	<polyline class="st2" points="296.2,127.6 288.2,119.6 280.2,127.6 	"/>
	<polyline class="st0" points="365.5,196.3 381.5,180.3 365.5,164.3 	"/>
	<line id="Dashed_line2_12_" class="st1" x1="196.8" y1="46.3" x2="240.8" y2="46.3"/>
	<polyline class="st2" points="241.9,53.8 249.9,45.8 241.9,37.8 	"/>
	<line id="Dashed_lin1_21_" class="st1" x1="289.3" y1="266.8" x2="289.3" y2="235.8"/>
	<line id="Dashed_lin1_20_" class="st1" x1="163.8" y1="149.3" x2="163.8" y2="101.3"/>
</g>
<g id="Icons">
	<g id="CI_Pipeline_3_">
		<circle class="st3" cx="289.8" cy="181.1" r="32"/>
		<g id="CI_x5F_CD_x5F_icon_14_">
			<g id="e18fe981-7760-4f0f-92d6-295e583f5df5_14_">
				<g>
					<path class="st4" d="M303,183.5c-1.5,6.3-6.8,10.9-13.4,10.9c-4.1,0.1-8-1.8-10.4-5.2l7.2-7.4l0.8,0.8l-0.8-0.8l0,0l1.1,1.3
						l1.7-5.9l-5.8,1.7l1.1,1.1l-1.7,2l-4.9,5c-1-1.7-1.6-3.5-1.7-5.4l-2.1-3.1c-0.1,0.7-0.2,1.5-0.1,2.2c0,8.9,7.3,16.3,16.1,16.3
						c6.9-0.1,13-4.4,15.2-10.9L303,183.5z"/>
					<polyline class="st5" points="277.7,187 284.4,180 283.5,178.8 289.2,177.2 279.2,187.1 					"/>
				</g>
				<g>
					<path class="st5" d="M289.5,197.1c6.9-0.1,13-4.4,15.2-10.9l-1.1-1.3c-1.9,7.8-9.8,12.5-17.6,10.6c-6.7-1.6-11.3-7.7-11.1-14.5
						v-0.7l-0.8-1.5c-0.1,0.7-0.2,1.5-0.1,2.2c-0.3,8.6,6.6,15.8,15.2,16.1C289.3,197.1,289.4,197.1,289.5,197.1z"/>
					<line class="st6" x1="277.7" y1="187.1" x2="279.2" y2="187.6"/>
				</g>
			</g>
			<g id="b4a44eff-a6ab-4c1f-a314-3899682236f1_14_">
				<g>
					<path class="st7" d="M276.6,178.3c1.5-6.3,6.8-10.9,13.4-10.9c4.1-0.1,8,1.8,10.4,5.2l-7.2,7.4l-0.6-0.8l0.8,0.8l0,0l-1.3-1.3
						l-1.7,5.9l5.8-1.7l-1.1-1.1l2-2l4.9-5c0.8,1.7,1.4,3.6,1.5,5.4l2.1,3.1c0.1-0.6,0.2-1.3,0.1-2c0-8.9-7.2-16.3-16.1-16.3
						c-6.8,0.1-12.8,4.5-14.9,10.9L276.6,178.3z"/>
					<polyline class="st8" points="300.5,172.6 293.2,180 292.2,178.7 290.5,184.6 300.2,174.5 					"/>
				</g>
				<g>
					<path class="st8" d="M289.3,165c-6.9,0.1-13,4.4-15.2,10.9l1.1,1.3c1.9-7.8,9.8-12.5,17.6-10.6c6.7,1.6,11.3,7.7,11.1,14.5v0.7
						l1.1,1.5c0.1-0.6,0.2-1.3,0.1-2C305,172.1,298,165,289.3,165z"/>
					<line class="st6" x1="301.9" y1="174.5" x2="300.5" y2="174.1"/>
				</g>
			</g>
		</g>
	</g>
	<g id="DevOps_x5F_insights_29_">
		<g id="Evidence_34_">
			<circle class="st9" cx="289.8" cy="299.6" r="32"/>
		</g>
		<g id="DevOps_x5F_icon_7_">
			<path class="st10" d="M293.9,310.6l-7.6,0.5c-0.7,0-1.2-0.5-1.4-1.1l0,0c0-0.7,0.5-1.2,1.2-1.3l7.6-0.5c0.7,0,1.2,0.5,1.4,1.1
				l0,0C295.1,309.9,294.6,310.5,293.9,310.6z"/>
			<path class="st10" d="M293.9,314.1l-7.6,0.5c-0.7,0-1.3-0.4-1.4-1.1l0,0c0-0.7,0.5-1.2,1.2-1.3l7.6-0.5c0.7,0,1.2,0.5,1.4,1.1
				l0,0C295.1,313.4,294.6,314,293.9,314.1z"/>
			<path class="st11" d="M286.4,316.1L286.4,316.1c0.1,2.6,2.8,4.4,5.5,3.4c1.6-0.6,2.5-2.1,2.5-3.8v-0.1v-0.1L286.4,316.1z"/>
			<g>
				<path class="st12" d="M302.2,291c-0.2-6.6-5.7-11.8-12.2-11.6c-6.2,0.2-11.2,5.3-11.4,11.6c0,2.8,1.1,5.6,3,7.7
					c1.9,2.3,2.8,3,2.8,6.8v0.3c0,0.5,0.5,1,1,1h10c0.5,0,1-0.4,1-1v-0.2c0-4,1-4.6,3-7.2l0,0C301.2,296.4,302.2,293.7,302.2,291z"
					/>
				<path class="st12" d="M299.3,298.5l0.1-0.2C299.4,298.4,299.4,298.5,299.3,298.5z"/>
			</g>
			<path class="st13" d="M302.2,291c-0.1-6.5-5.4-11.7-11.8-11.6v27.4h5c0.5,0,1-0.4,1-1v-0.2c0-4,1-4.6,3-7.2l0,0
				C301.2,296.4,302.2,293.7,302.2,291z"/>
			<path class="st14" d="M295.4,313.1v-0.4c-0.1-0.6-0.5-1-1.1-1l-3.9,0.3v2.4l4.1-0.3C295,314.1,295.4,313.6,295.4,313.1
				L295.4,313.1z"/>
			<path class="st14" d="M295.4,309.5v-0.4c-0.1-0.6-0.5-1-1.1-1l-3.9,0.4v2.4l4.1-0.3C295,310.5,295.4,310,295.4,309.5z"/>
			<path class="st15" d="M294.4,315.3l-4,0.3v3.9C292.6,319.4,294.4,317.6,294.4,315.3L294.4,315.3z"/>
			<ellipse class="st16" cx="290" cy="291.3" rx="7.5" ry="7.2"/>
			<path class="st17" d="M290.4,284v14.5c4.1,0.1,7.4-3.1,7.5-7.2C297.8,287.2,294.5,283.9,290.4,284z"/>
			<path class="st18" d="M295.7,295.9c1.4-1.6,2-3.8,1.6-5.9l-7.4,1.3l-4.8,5.5C288.3,299.4,293,299,295.7,295.9z"/>
		</g>
	</g>
	<g id="PR_Pipeline_1_">
		<circle class="st9" cx="162.8" cy="42.9" r="32"/>
		<g id="CI_x5F_CD_x5F_icon_13_">
			<g id="e18fe981-7760-4f0f-92d6-295e583f5df5_13_">
				<g>
					<path class="st4" d="M175.8,45.1C174.3,51.4,169,56,162.4,56c-4.1,0.1-8-1.8-10.4-5.2l7.2-7.4l0.8,0.8l-0.8-0.8l0,0l1.1,1.3
						l1.7-5.9l-5.8,1.7l1.1,1.1l-1.7,2l-4.9,5c-1-1.7-1.6-3.5-1.7-5.4l-2.1-3.1c-0.1,0.7-0.2,1.5-0.1,2.2c0,8.9,7.3,16.3,16.1,16.3
						c6.9-0.1,13-4.4,15.2-10.9L175.8,45.1z"/>
					<polyline class="st5" points="150.5,48.5 157.2,41.6 156.2,40.4 162,38.8 152,48.7 					"/>
				</g>
				<g>
					<path class="st5" d="M162.4,58.2c6.9-0.1,13-4.4,15.2-10.9l-1.1-1.3c-1.9,7.8-9.8,12.5-17.6,10.6c-6.7-1.6-11.3-7.7-11.1-14.5
						v-0.7l-0.8-1.5c-0.1,0.7-0.2,1.5-0.1,2.2c-0.3,8.6,6.6,15.8,15.2,16.1C162.2,58.2,162.3,58.2,162.4,58.2z"/>
					<line class="st6" x1="150.5" y1="48.7" x2="152" y2="49.2"/>
				</g>
			</g>
			<g id="b4a44eff-a6ab-4c1f-a314-3899682236f1_13_">
				<g>
					<path class="st7" d="M149.3,39.9c1.5-6.3,6.8-10.9,13.4-10.9c4.1-0.1,8,1.8,10.4,5.2l-7.2,7.4l-0.6-0.8l0.8,0.8l0,0l-1.3-1.3
						l-1.7,5.9l5.8-1.7l-1.1-1.1l2-2l4.9-5c0.8,1.7,1.4,3.6,1.5,5.4l2.1,3.1c0.1-0.6,0.2-1.3,0.1-2c0-8.9-7.2-16.3-16.1-16.3
						c-6.8,0.1-12.8,4.5-14.9,10.9L149.3,39.9z"/>
					<polyline class="st8" points="173.3,34.2 165.9,41.6 165,40.3 163.3,46.2 173,36.1 					"/>
				</g>
				<g>
					<path class="st8" d="M163.2,26.6c-6.9,0.1-13,4.4-15.2,10.9l1.1,1.3c1.9-7.8,9.8-12.5,17.6-10.6c6.7,1.6,11.3,7.7,11.1,14.5
						v0.7l1.1,1.5c0.1-0.6,0.2-1.3,0.1-2C178.9,33.7,171.9,26.6,163.2,26.6z"/>
					<line class="st6" x1="174.7" y1="36.1" x2="173.3" y2="35.7"/>
				</g>
			</g>
		</g>
	</g>
	<g id="App_Repo_2_">
		<circle class="st9" cx="414.5" cy="181.1" r="32"/>
	</g>
	<g>
		<defs>
			<filter id="Adobe_OpacityMaskFilter" filterUnits="userSpaceOnUse" x="398.5" y="165.1" width="32" height="32">
				<feColorMatrix  type="matrix" values="1 0 0 0 0  0 1 0 0 0  0 0 1 0 0  0 0 0 1 0"/>
			</filter>
		</defs>
		<mask maskUnits="userSpaceOnUse" x="398.5" y="165.1" width="32" height="32" id="SVGID_2_">
			<g class="st19">
				<g>
					<path class="st20" d="M414.5,171.1L414.5,171.1c0.5,0,1,0,1.5,0.1c3.2,0.6,5.7,3.1,6.4,6.3l0.3,1.3l1.3,0.2
						c1.4,0.3,2.7,1.1,3.5,2.3s1.2,2.7,0.9,4.1c-0.5,2.6-2.7,4.5-5.4,4.5h-17c-3,0-5.5-2.5-5.5-5.5c0-2.7,1.9-4.9,4.5-5.4l1.3-0.2
						l0.3-1.3C407.4,173.8,410.7,171.1,414.5,171.1 M414.5,169.1c-4.7,0-8.9,3.3-9.8,8.1c-3.6,0.6-6.2,3.7-6.2,7.4
						c0,4.1,3.3,7.5,7.5,7.5h17c3.6,0,6.7-2.6,7.4-6.2c0.7-4.1-2-8-6-8.7c-0.8-4-3.9-7.2-7.9-7.9
						C415.8,169.1,415.1,169.1,414.5,169.1L414.5,169.1z"/>
					
						<linearGradient id="SVGID_1_" gradientUnits="userSpaceOnUse" x1="406.7218" y1="220.6782" x2="422.2782" y2="205.1218" gradientTransform="matrix(1 0 0 -1 0 392)">
						<stop  offset="0.3" style="stop-color:#000000;stop-opacity:0"/>
						<stop  offset="0.68" style="stop-color:#000000"/>
					</linearGradient>
					<circle class="st21" cx="414.5" cy="179.1" r="11"/>
					<rect x="418.5" y="177.1" width="12" height="17"/>
					
						<linearGradient id="SVGID_3_" gradientUnits="userSpaceOnUse" x1="-415.5" y1="2713.1001" x2="-401.5" y2="2713.1001" gradientTransform="matrix(-1 0 0 1 4 -2522)">
						<stop  offset="0.1" style="stop-color:#000000"/>
						<stop  offset="1" style="stop-color:#000000;stop-opacity:0"/>
					</linearGradient>
					<polygon class="st22" points="405.5,189.1 419.5,189.1 419.5,193.1 405.5,193.1 					"/>
				</g>
			</g>
		</mask>
		
			<linearGradient id="SVGID_4_" gradientUnits="userSpaceOnUse" x1="398.5" y1="194.9" x2="430.5" y2="226.9" gradientTransform="matrix(1 0 0 -1 0 392)">
			<stop  offset="0.1" style="stop-color:#54B9B8"/>
			<stop  offset="0.9" style="stop-color:#2467F4"/>
		</linearGradient>
		<rect x="398.5" y="165.1" class="st23" width="32" height="32"/>
		<path class="st24" d="M424,179.1h-0.5h-8l2.4-2.6l-1.4-1.4l-5,5l5,5l1.4-1.4l-2.4-2.6h8h0.5c2.5,0,4.5,2,4.5,4.5s-2,4.5-4.5,4.5
			h-4.5v2h4.5c3.6,0,6.5-2.9,6.5-6.5S427.6,179.1,424,179.1z"/>
	</g>
	<g id="DevOps_x5F_insights_9_">
		<g id="DevOps_x5F_insights_10_">
			<g id="CRA_x5F_icon_2_">
				<circle class="st9" cx="289.8" cy="43.1" r="32"/>
			</g>
			<g>
				<rect x="283.7" y="39.1" width="8" height="2"/>
				<rect x="283.7" y="35.1" width="12" height="2"/>
				<rect x="283.7" y="31.1" width="12" height="2"/>
				<path d="M280.4,57.1l5.6-10l7.4,6.5c0.5,0.4,1.1,0.6,1.7,0.5s1.1-0.5,1.4-1l7-10.4l-1.7-1.1l-7,10.4l-0.1,0.1l-7.4-6.5
					c-0.5-0.4-1.1-0.6-1.7-0.5s-1.1,0.5-1.4,1l-4.6,8.1V31.1h-2v26c0,1.1,0.9,2,2,2h26v-2H280.4z"/>
				<rect id="_x3C_Transparent_Rectangle_x3E__10_" x="275.7" y="29.1" class="st6" width="32" height="32"/>
			</g>
		</g>
	</g>
	<g id="Issue_Tracker_16_">
		<circle class="st9" cx="46" cy="181.1" r="32"/>
		<g id="Layer_2_10_">
			<g id="Layer_1-2_9_">
				<g>
					<g>
						<defs>
							<rect id="SVGID_5_" x="26" y="160.8" width="40" height="40"/>
						</defs>
						<clipPath id="SVGID_6_">
							<use xlink:href="#SVGID_5_"  style="overflow:visible;"/>
						</clipPath>
						<g class="st25">
							<g>
								<g>
									<defs>
										<rect id="SVGID_7_" x="26" y="160.8" width="40" height="40"/>
									</defs>
									<clipPath id="SVGID_8_">
										<use xlink:href="#SVGID_7_"  style="overflow:visible;"/>
									</clipPath>
									<g class="st26">
										<path class="st27" d="M37.9,182.7c-0.1-0.3-0.1-0.7-0.2-1c0-0.1,0-0.1,0-0.2l0,0c-0.1-0.9,0-1.7,0.2-2.6l0,0
											c0,0,0-0.1,0-0.2v-0.1v-0.1c0,0,0-0.1,0-0.2c0-0.1,0,0,0,0c0.3-0.9,0.7-1.7,1.2-2.5l0,0l0.1-0.2l0.1-0.1l0.1-0.1
											c0.2-0.3,0.4-0.5,0.7-0.7c-1.7-3.3-1.6-7.3,0.2-10.6c-1.1,0.4-2.2,0.8-3.2,1.4l0,0l-0.1,0.1h-0.1l0,0h-0.1h-0.1l-0.2,0.1
											l-0.1,0.1c-0.1,0-0.1,0.1-0.2,0.1L36,166l-0.2,0.1l-0.2,0.1l-0.2,0.1l-0.2,0.2l-0.2,0.1l-0.1,0.1l-0.3,0.2l-0.1,0.1
											l-0.2,0.1c-0.1,0-0.1,0.1-0.1,0.1l-0.1,0.1l-0.1,0.1l-0.1,0.2l-0.2,0.1l-0.1,0.1l-0.1,0.1l-0.1,0.1
											c-0.1,0-0.1,0.1-0.2,0.1l-0.1,0.1l-0.1,0.2l-0.2,0.2l-0.2,0.3l-0.1,0.1c0,0-0.1,0.1-0.1,0.2l-0.1,0.1
											c0,0.1-0.1,0.1-0.1,0.2l-0.1,0.1l-0.1,0.2l-0.1,0.1c0,0,0,0.1-0.1,0.1l-0.1,0.2l-0.1,0.1c0,0.1-0.1,0.1-0.1,0.2l-0.1,0.1
											l0,0l-0.1,0.2l-0.1,0.2c-0.1,0.1-0.1,0.2-0.2,0.4l-0.2,0.4l-0.1,0.1l-0.1,0.2c0,0,0,0.1-0.1,0.1c0,0.1-0.1,0.2-0.1,0.2
											c0,0.1,0,0.1-0.1,0.1l-0.1,0.3v0.2c0,0.1-0.1,0.2-0.1,0.2s0,0.1-0.1,0.1l-0.1,0.3v0.1l-0.1,0.4l0,0
											c-0.1,0.1-0.1,0.2-0.1,0.4c0,0.1,0,0.1,0,0.1c-0.1,0,0,0.2-0.1,0.3s0,0.1-0.1,0.1l-0.1,0.2l0,0v0.1v0.1l-0.2,0.2l0,0v0.1
											l-0.1,0.6l0,0C30.8,180.4,34.2,182.5,37.9,182.7"/>
									</g>
								</g>
							</g>
							<g>
								<g>
									<defs>
										<rect id="SVGID_9_" x="26" y="160.8" width="40" height="40"/>
									</defs>
									<clipPath id="SVGID_10_">
										<use xlink:href="#SVGID_9_"  style="overflow:visible;"/>
									</clipPath>
									<g class="st28">
										<path class="st29" d="M43.6,188.7c-0.3-0.1-0.6-0.2-0.9-0.3l-0.2-0.1l0,0c-0.8-0.4-1.5-0.9-2.2-1.5l0,0l-0.1-0.1l-0.1-0.1
											l-0.1-0.1l-0.1-0.1l0,0c-0.6-0.7-1.1-1.5-1.5-2.3l0,0l-0.1-0.2l-0.1-0.1v-0.1c-0.1-0.3-0.2-0.6-0.3-1
											c-3.7-0.2-7.2-2.2-9.1-5.4c-0.2,1.1-0.4,2.3-0.4,3.5v0.4l0,0v0.2c0,0.1,0,0.1,0,0.2s0,0.1,0,0.2c0,0.1,0,0.2,0,0.2
											c0,0.1,0,0.1,0,0.2c0,0.1,0,0.1,0,0.2c0,0.1,0,0.1,0,0.2c0,0.1,0,0.1,0,0.2c0,0.1,0,0.1,0,0.2v0.2c0,0.1,0,0.1,0,0.2
											l0.1,0.4v0.2c0,0.1,0,0.1,0,0.2c0,0.1,0,0.1,0,0.2c0,0.1,0,0.1,0,0.2s0,0.1,0,0.2s0,0.1,0,0.2c0.1,0.1,0,0.1,0,0.2
											s0,0.1,0,0.2c0,0.1,0,0.1,0.1,0.2c0,0.1,0,0.1,0,0.2c0,0.1,0,0.1,0,0.2c0,0.1,0,0.1,0,0.2l0.1,0.2c0,0.1,0,0.1,0.1,0.2
											c0,0.1,0.1,0.2,0.1,0.3l0.1,0.2c0,0.1,0,0.1,0.1,0.2c0,0.1,0,0.1,0.1,0.2c0,0.1,0,0.1,0.1,0.2l0.1,0.2
											c0,0.1,0,0.1,0.1,0.2l0.1,0.2v0.1l0.1,0.2l0.1,0.2c0,0.1,0.1,0.2,0.1,0.2l0.1,0.1l0,0l0-0.1c0,0,0,0.1,0.1,0.1l0.2,0.4
											c0.1,0.1,0.1,0.2,0.2,0.4c0,0,0,0.1,0.1,0.1l0.1,0.2l0.1,0.1l0.2,0.2l0.1,0.1c0,0.1,0.1,0.1,0.1,0.2l0.1,0.1l0.7,0.2
											l0.1,0.1l0.2,0.2l0.1,0.1c0.1,0.1,0.2,0.2,0.3,0.3l0,0l0.2,0.3l0.2,0.1l0.2,0.2l0.1,0.1l0.2,0.1l0,0l0.1,0.1l0.1,0.1
											L34,193l0,0l0.1,0.1c0.2,0.1,0.3,0.3,0.5,0.4l0,0C38.1,193.7,41.6,191.8,43.6,188.7"/>
									</g>
								</g>
							</g>
							<g>
								<g>
									<defs>
										<rect id="SVGID_11_" x="26" y="160.8" width="40" height="40"/>
									</defs>
									<clipPath id="SVGID_12_">
										<use xlink:href="#SVGID_11_"  style="overflow:visible;"/>
									</clipPath>
									<g class="st30">
										<path class="st31" d="M51.7,186.8c-0.2,0.2-0.5,0.4-0.8,0.6l-0.2,0.1l0,0c-0.7,0.5-1.5,0.9-2.3,1.1l0,0h-0.2h-0.1
											l-0.2,0.1h-0.2l0,0c-0.9,0.2-1.8,0.3-2.8,0.2H45h-0.2h-0.1h-0.1c-0.3-0.1-0.7-0.1-1-0.2c-2,3.1-5.5,5-9.2,5.1
											c0.9,0.8,1.8,1.5,2.8,2.1l0,0l0.3,0.1h0.1l0,0h0.1h0.1l0.2,0.1c0.1,0,0.1,0.1,0.2,0.1l0.2,0.1l0.2,0.1l0.2,0.1l0.2,0.1
											l0.3,0.2l0.2,0.1l0.2,0.1l0.2,0.1l0.4,0.1l0.2,0.1l0.2,0.1l0.2,0.1l0.2,0.1l0.2,0.1l0.2,0.1h0.2h0.2l0.2,0.1h0.2H42h0.2
											h0.2h0.2L43,198h0.2h0.2h0.2h0.2H44h0.2h0.2h0.3h0.2h2.6h0.2h0.2h0.2h0.2h0.1h0.3h0.1l0.4-0.1l0,0l0.4-0.1h0.1
											c0.1,0,0.2,0,0.3-0.1l0.1,0.3h0.2l0,0h0.1h0.1l0.2-0.1l0,0h0.1l0.6-0.2l0,0C53.3,194.3,53.4,190.2,51.7,186.8"/>
									</g>
								</g>
							</g>
							<g>
								<g>
									<defs>
										<rect id="SVGID_13_" x="26" y="160.8" width="40" height="40"/>
									</defs>
									<clipPath id="SVGID_14_">
										<use xlink:href="#SVGID_13_"  style="overflow:visible;"/>
									</clipPath>
									<g class="st32">
										<path class="st33" d="M54,178.9c0.1,0.3,0.1,0.7,0.2,1c0,0.1,0,0.1,0,0.2l0,0c0.1,0.9,0,1.7-0.2,2.6l0,0
											c0,0.1,0,0.1,0,0.2v0.1v0.1c0,0.1,0,0.1,0,0.2l0,0c-0.3,0.9-0.7,1.7-1.2,2.5l0,0l-0.1,0.2l-0.1,0.1l-0.1,0.1
											c-0.2,0.3-0.4,0.5-0.7,0.7c1.7,3.3,1.6,7.3-0.2,10.6c1.1-0.4,2.2-0.8,3.2-1.4l0,0l0.3-0.2h0.1l0,0c0,0,0,0,0.1,0l0.1-0.1
											l0.2-0.1l0.1-0.1l0.2-0.1l0.2-0.1l0.2-0.1l0.2-0.1l0.2-0.1l0.1-0.1l0.2-0.1l0.1-0.1l0.3-0.2l0.1-0.1l0.2-0.1l0.1-0.1
											l0.2-0.1l0.1-0.1c0,0,0.1-0.1,0.2-0.1l0.1-0.1l0.1-0.1l0.2-0.1l0.1-0.1l0.1-0.1l0.1-0.1l0.1-0.1l0.2-0.2l0.2-0.3l0.1-0.1
											l0.1-0.2l0.1-0.1c0-0.1,0.1-0.1,0.1-0.2l0.1-0.1l0.1-0.2l0.1-0.1c0,0,0-0.1,0.1-0.1l0.1-0.1l0.1-0.2
											c0-0.1,0.1-0.1,0.1-0.2l0.1-0.1l0,0l0.1-0.2v-0.2c0.1-0.1,0.2-0.2,0.2-0.4l0.2-0.4c0,0,0-0.1,0.1-0.1l0.1-0.2
											c0-0.1,0-0.1,0.1-0.1c0-0.1,0.1-0.2,0.1-0.2c0-0.1,0-0.1,0.1-0.1c0-0.1,0.1-0.1,0.1-0.2l0.1-0.1l0.1-0.2
											c0,0,0-0.1,0.1-0.1l0.1-0.3v-0.1c0-0.1,0.1-0.3,0.1-0.4l0,0c0-0.1,0.1-0.2,0.1-0.4c0-0.1,0-0.1,0-0.1s0-0.2,0.1-0.3
											c0-0.1,0-0.1,0-0.1l0.1-0.2c0,0,0,0,0-0.1v-0.1v-0.1l0.1-0.2l0,0v-0.1l0.2-0.6l0,0C61,181.2,57.7,179.2,54,178.9"/>
									</g>
								</g>
							</g>
							<g>
								<g>
									<defs>
										<rect id="SVGID_15_" x="26" y="160.8" width="40" height="40"/>
									</defs>
									<clipPath id="SVGID_16_">
										<use xlink:href="#SVGID_15_"  style="overflow:visible;"/>
									</clipPath>
									<g class="st34">
										<path class="st35" d="M48.4,172.8c0.3,0.1,0.6,0.2,0.9,0.3l0.2,0.1l0,0c0.8,0.4,1.5,0.9,2.1,1.4l0,0l0.1,0.1
											c0,0,0,0,0.1,0.1l0.1,0.1L52,175l0,0c0.6,0.7,1.1,1.5,1.5,2.3c0,0,0,0,0,0.1l0.1,0.2v0.1v0.1c0.1,0.3,0.2,0.6,0.3,1
											c3.7,0.2,7.2,2.2,9.1,5.4c0.2-1.1,0.4-2.3,0.4-3.5v-0.4l0,0v-0.2c0-0.1,0-0.2,0-0.2c0-0.1,0-0.1,0-0.2s0-0.1,0-0.2
											c0-0.1,0-0.1,0-0.2c0-0.1,0-0.1,0-0.2c0-0.1,0-0.1,0-0.2c0-0.1,0-0.1,0-0.2c0-0.1,0-0.1,0-0.2v-0.2c0-0.1,0-0.1,0-0.2
											l-0.1-0.4v-0.2c0-0.1,0-0.1,0-0.2c0-0.1,0-0.1,0-0.2c0-0.1,0-0.1,0-0.2c0-0.1,0-0.1,0-0.2c0-0.1,0-0.1,0-0.2v-0.2
											c0-0.1,0-0.1,0-0.2c0-0.1,0-0.1,0-0.2c0-0.1,0-0.1,0-0.2c0-0.1,0-0.1,0-0.2c0-0.1,0-0.1,0-0.2l-0.1-0.2
											c0-0.1,0-0.1-0.1-0.2l-0.1-0.3l-0.1-0.2c0-0.1,0-0.1-0.1-0.2c0-0.1,0-0.1-0.1-0.2c0-0.1,0-0.1-0.1-0.2l-0.1-0.2
											c0-0.1,0-0.1-0.1-0.2l-0.4-0.1v-0.1l-0.1-0.2l-0.1-0.2c0-0.1-0.1-0.2-0.1-0.2l-0.1-0.1v-0.1l-0.1-0.2c0,0,0-0.1-0.1-0.1
											l-0.2-0.4c-0.1-0.1-0.1-0.2-0.2-0.4c0,0,0-0.1-0.1-0.1l-0.2-0.2l-0.1-0.1l-0.2-0.2l-0.1-0.1l-0.1-0.2l-0.1-0.1l-0.2-0.2
											l-0.1-0.1l-0.2-0.2l-0.1-0.1c-0.1-0.1-0.2-0.2-0.3-0.3l0,0l-0.2-0.3l-0.1-0.2l-0.2-0.2l-0.1-0.1c0-0.1-0.1-0.1-0.2-0.1
											l0,0l-0.1-0.1l-0.1-0.1l-0.2-0.2l0,0l-0.1-0.1c-0.2-0.1-0.3-0.3-0.5-0.4l0,0C54,167.8,50.5,169.7,48.4,172.8"/>
									</g>
								</g>
							</g>
							<g>
								<g>
									<defs>
										<rect id="SVGID_17_" x="26" y="160.8" width="40" height="40"/>
									</defs>
									<clipPath id="SVGID_18_">
										<use xlink:href="#SVGID_17_"  style="overflow:visible;"/>
									</clipPath>
									<g class="st36">
										<path class="st37" d="M40.3,174.8c0.2-0.2,0.5-0.4,0.8-0.6l0.2-0.1l0,0c0.7-0.5,1.5-0.9,2.3-1.1l0,0h0.2h0.1H44h0l0,0
											c0.9-0.2,1.8-0.3,2.8-0.2l0,0H47h0.1h0.1c0.3,0.1,0.7,0.1,1,0.2c2-3.2,5.5-5.2,9.3-5.3c-0.9-0.8-1.8-1.5-2.8-2.1l0,0
											l-0.3-0.1h-0.1l0,0h-0.1h-0.1l-0.2-0.1l-0.2-0.1l-0.2-0.1l-0.2-0.1l-0.2-0.1l-0.2-0.1l-0.2-0.2l-0.2-0.1l-0.2-0.1
											l-0.2-0.1l-0.3-0.1l-0.2-0.1l-0.2-0.1l-0.2-0.1l-0.2-0.1l-0.2-0.1l-0.2-0.1l-0.2-0.1h-0.2l-0.2-0.1h-0.2l-0.2-0.1h-0.2
											h-0.2l-0.2-0.1l-0.3-0.1h-0.2h-0.2c-0.1,0-0.1,0-0.2,0h-0.2h-0.2h-0.2h-0.7H47h-2h-0.3h-0.2h-0.2h-0.2h-0.2h-0.1h-0.3
											h-0.1l-0.4,0.1l0,0l-0.4,0.1h-0.1h-0.4h-0.2h-0.2l0,0h-0.1h-0.1l-0.2,0.1l0,0h-0.1l-0.6,0.2l0,0
											C38.7,167.4,38.6,171.4,40.3,174.8"/>
									</g>
								</g>
							</g>
						</g>
					</g>
				</g>
			</g>
		</g>
	</g>
	<g id="Issue_Tracker_4_">
		<circle class="st9" cx="162.8" cy="181.1" r="32"/>
		<g id="Layer_2_9_">
			<g id="Layer_1-2_8_">
				<g>
					<g>
						<defs>
							<rect id="SVGID_19_" x="142.8" y="160.8" width="40" height="40"/>
						</defs>
						<clipPath id="SVGID_20_">
							<use xlink:href="#SVGID_19_"  style="overflow:visible;"/>
						</clipPath>
						<g class="st38">
							<g>
								<g>
									<defs>
										<rect id="SVGID_21_" x="142.8" y="160.8" width="40" height="40"/>
									</defs>
									<clipPath id="SVGID_22_">
										<use xlink:href="#SVGID_21_"  style="overflow:visible;"/>
									</clipPath>
									<g class="st39">
										<path class="st27" d="M154.7,182.7c-0.1-0.3-0.1-0.7-0.2-1c0-0.1,0-0.1,0-0.2l0,0c-0.1-0.9,0-1.7,0.2-2.6l0,0
											c0,0,0-0.1,0-0.2v-0.1v-0.1c0,0,0-0.1,0-0.2c0-0.1,0,0,0,0c0.3-0.9,0.7-1.7,1.2-2.5l0,0l0.2-0.2l0.1-0.1l0.1-0.1
											c0.2-0.3,0.4-0.5,0.7-0.7c-1.7-3.3-1.6-7.3,0.2-10.6c-1.1,0.4-2.2,0.8-3.2,1.4l0,0l-0.1,0.1h-0.1l0,0h-0.1h-0.1l-0.2,0.1
											l-0.2,0.1c-0.1,0-0.1,0.1-0.2,0.1l-0.2,0.1l-0.2,0.1l-0.1,0.1l-0.2,0.1l-0.2,0.2l-0.2,0.1l-0.1,0.1l-0.3,0.2l-0.1,0.1
											l-0.2,0.1c-0.1,0-0.1,0.1-0.1,0.1l-0.1,0.1l-0.1,0.1l-0.1,0.2l-0.1,0.1l-0.1,0.1l-0.1,0.1l-0.1,0.1
											c-0.1,0-0.1,0.1-0.2,0.1l-0.1,0.1l-0.1,0.2l-0.1,0.2l-0.2,0.3l-0.1,0.1c0,0-0.1,0.1-0.1,0.2l-0.1,0.1
											c0,0.1-0.1,0.1-0.1,0.2l-0.1,0.1l-0.1,0.2l-0.1,0.1c0,0,0,0.1-0.1,0.1l-0.1,0.2l-0.1,0.1c0,0.1-0.1,0.1-0.1,0.2l-0.1,0.1
											l0,0l-0.1,0.2l-0.1,0.2c-0.1,0.1-0.1,0.2-0.2,0.4l-0.2,0.4l-0.1,0.1l-0.1,0.2c0,0,0,0.1-0.1,0.1c0,0.1-0.1,0.2-0.1,0.2
											c0,0.1,0,0.1-0.1,0.1l-0.1,0.3v0.2c0,0.1-0.1,0.2-0.1,0.2s0,0.1-0.1,0.1l-0.1,0.3v0.1l-0.1,0.4l0,0
											c-0.1,0.1-0.1,0.2-0.1,0.4c0,0.1,0,0.1,0,0.1c-0.1,0,0,0.2-0.1,0.3s0,0.1-0.1,0.1l-0.1,0.2l0,0v0.1v0.1l-0.2,0.2l0,0v0.1
											l-0.1,0.6l0,0C147.6,180.4,151,182.5,154.7,182.7"/>
									</g>
								</g>
							</g>
							<g>
								<g>
									<defs>
										<rect id="SVGID_23_" x="142.8" y="160.8" width="40" height="40"/>
									</defs>
									<clipPath id="SVGID_24_">
										<use xlink:href="#SVGID_23_"  style="overflow:visible;"/>
									</clipPath>
									<g class="st40">
										<path class="st29" d="M160.4,188.7c-0.3-0.1-0.6-0.2-0.9-0.3l-0.2-0.1l0,0c-0.8-0.4-1.5-0.9-2.2-1.5l0,0l-0.1-0.1
											l-0.1-0.1l-0.1-0.1l-0.1-0.1l0,0c-0.6-0.7-1.1-1.5-1.5-2.3l0,0l-0.1-0.2l-0.1-0.1v-0.1c-0.1-0.3-0.2-0.6-0.3-1
											c-3.7-0.2-7.2-2.2-9.1-5.4c-0.2,1.1-0.4,2.3-0.4,3.5v0.4l0,0v0.2c0,0.1,0,0.1,0,0.2s0,0.1,0,0.2c0,0.1,0,0.2,0,0.2
											c0,0.1,0,0.1,0,0.2c0,0.1,0,0.1,0,0.2c0,0.1,0,0.1,0,0.2c0,0.1,0,0.1,0,0.2c0,0.1,0,0.1,0,0.2v0.2c0,0.1,0,0.1,0,0.2
											l0.1,0.4v0.2c0,0.1,0,0.1,0,0.2c0,0.1,0,0.1,0,0.2c0,0.1,0,0.1,0,0.2s0,0.1,0,0.2s0,0.1,0.1,0.2c0.1,0.1,0,0.1,0,0.2
											s0,0.1,0,0.2c0,0.1,0,0.1,0.1,0.2c0,0.1,0,0.1,0,0.2c0,0.1,0,0.1,0,0.2c0,0.1,0,0.1,0,0.2l0.1,0.2c0,0.1,0,0.1,0.1,0.2
											c0,0.1,0.1,0.2,0.1,0.3l0.1,0.2c0,0.1,0,0.1,0.1,0.2c0,0.1,0,0.1,0.1,0.2c0,0.1,0,0.1,0.1,0.2l0.1,0.2
											c0,0.1,0,0.1,0.1,0.2l0.1,0.2v0.1l0.1,0.2l0.1,0.2c0,0.1,0.1,0.2,0.1,0.2l0.1,0.1l0,0l0.1,0.2c0,0,0,0.1,0.1,0.1l0.2,0.4
											c0.1,0.1,0.1,0.2,0.2,0.4c0,0,0,0.1,0.1,0.1l0.1,0.2l0.1,0.1l0.1,0.2l0.1,0.1c0,0.1,0.1,0.1,0.1,0.2l0.1,0.1l0.7,0.2
											l0.1,0.1l0.2,0.2l0.1,0.1c0.1,0.1,0.2,0.2,0.3,0.3l0,0l0.2,0.3l0.1,0.1l0.2,0.2l0.1,0.1l0.1,0.1l0,0l0.1,0.1l0.1,0.1
											l0.2,0.2l0,0l0.1,0.1c0.1,0.1,0.3,0.3,0.5,0.4l0,0C154.8,193.7,158.3,191.8,160.4,188.7"/>
									</g>
								</g>
							</g>
							<g>
								<g>
									<defs>
										<rect id="SVGID_25_" x="142.8" y="160.8" width="40" height="40"/>
									</defs>
									<clipPath id="SVGID_26_">
										<use xlink:href="#SVGID_25_"  style="overflow:visible;"/>
									</clipPath>
									<g class="st41">
										<path class="st31" d="M168.4,186.8c-0.2,0.2-0.5,0.4-0.8,0.6l-0.1,0.1l0,0c-0.7,0.5-1.5,0.9-2.3,1.1l0,0H165h-0.1
											l-0.2,0.1h-0.2l0,0c-0.9,0.2-1.8,0.3-2.8,0.2h-0.1h-0.2h-0.1h-0.1c-0.3-0.1-0.6-0.1-1-0.2c-2,3.1-5.5,5-9.2,5.1
											c0.9,0.8,1.8,1.5,2.8,2.1l0,0l0.3,0.1h0.1l0,0h0.1h0.1l0.2,0.1c0.1,0,0.1,0.1,0.2,0.1l0.2,0.1l0.2,0.1l0.2,0.1l0.2,0.1
											l0.3,0.2l0.2,0.1l0.2,0.1l0.2,0.1l0.3,0.1l0.2,0.1l0.2,0.1l0.2,0.1l0.2,0.1l0.2,0.1l0.2,0.1h0.2h0.2l0.2,0.1h0.2h0.2h0.2
											h0.2h0.2l0.4,0.1h0.2h0.2h0.2h0.2h0.2h0.2h0.2h0.3h0.2h2.6h0.2h0.2h0.2h0.2h0.1h0.3h0.1l0.4-0.1l0,0l0.4-0.1h0.1
											c0.1,0,0.2,0,0.3-0.1l0.1,0.3h0.2l0,0h0.1h0.1l0.2-0.1l0,0h0.1l0.6-0.2l0,0C170.1,194.3,170.2,190.2,168.4,186.8"/>
									</g>
								</g>
							</g>
							<g>
								<g>
									<defs>
										<rect id="SVGID_27_" x="142.8" y="160.8" width="40" height="40"/>
									</defs>
									<clipPath id="SVGID_28_">
										<use xlink:href="#SVGID_27_"  style="overflow:visible;"/>
									</clipPath>
									<g class="st42">
										<path class="st33" d="M170.8,178.9c0.1,0.3,0.1,0.7,0.2,1c0,0.1,0,0.1,0,0.2l0,0c0.1,0.9,0,1.7-0.2,2.6l0,0
											c0,0.1,0,0.1,0,0.2v0.1v0.1c0,0.1,0,0.1,0,0.2l0,0c-0.3,0.9-0.7,1.7-1.2,2.5l0,0l-0.1,0.2l-0.1,0.1l-0.1,0.1
											c-0.2,0.3-0.4,0.5-0.7,0.7c1.7,3.3,1.6,7.3-0.2,10.6c1.1-0.4,2.2-0.8,3.2-1.4l0,0l0.3-0.2h0.1l0,0h0.1l0.1-0.1l0.2-0.1
											l0.2-0.1l0.2-0.1l0.2-0.1l0.2-0.1l0.1-0.1l0.2-0.1l0.1-0.1l0.2-0.1l0.1-0.1l0.3-0.2l0.1-0.1l0.2-0.1l0.1-0.1l0.2-0.1
											l0.1-0.1l0.1-0.1l0.1-0.1l0.1-0.1l0.2-0.1l0.1-0.1l0.1-0.1l0.1-0.1l0.1-0.1l0.2-0.2l0.2-0.3l0.1-0.1l0.1-0.2l0.1-0.1
											c0-0.1,0.1-0.1,0.1-0.2l0.1-0.1l0.1-0.2l0.1-0.1c0,0,0-0.1,0.1-0.1l0.1-0.1l0.1-0.2c0-0.1,0.1-0.1,0.1-0.2l0.1-0.1l0,0
											l0.1-0.2v-0.2c0.1-0.1,0.1-0.2,0.2-0.4l0.2-0.4c0,0,0-0.1,0.1-0.1l0.1-0.2c0-0.1,0-0.1,0.1-0.1c0-0.1,0.1-0.2,0.1-0.2
											c0-0.1,0-0.1,0.1-0.1c0-0.1,0.1-0.1,0.1-0.2l0.1-0.1l0.1-0.2c0,0,0-0.1,0.1-0.1l0.1-0.3v-0.1c0-0.1,0.1-0.3,0.1-0.4l0,0
											c0-0.1,0.1-0.2,0.1-0.4c0-0.1,0-0.1,0-0.1s0-0.2,0.1-0.3c0-0.1,0-0.1,0-0.1l0.1-0.2c0,0,0,0,0-0.1v-0.1v-0.1l0.1-0.2l0,0
											v-0.1l0.1-0.6l0,0C177.8,181.2,174.5,179.2,170.8,178.9"/>
									</g>
								</g>
							</g>
							<g>
								<g>
									<defs>
										<rect id="SVGID_29_" x="142.8" y="160.8" width="40" height="40"/>
									</defs>
									<clipPath id="SVGID_30_">
										<use xlink:href="#SVGID_29_"  style="overflow:visible;"/>
									</clipPath>
									<g class="st43">
										<path class="st35" d="M165.1,172.8c0.3,0.1,0.6,0.2,0.9,0.3l0.2,0.1l0,0c0.8,0.4,1.5,0.9,2.1,1.4l0,0l0.1,0.1
											c0,0,0,0,0.1,0.1l0.1,0.1l0.1,0.1l0,0c0.6,0.7,1.1,1.5,1.5,2.3c0,0,0,0,0,0.1l0.1,0.2v0.1v0.1c0.1,0.3,0.2,0.6,0.3,1
											c3.7,0.2,7.2,2.2,9.1,5.4c0.2-1.1,0.4-2.3,0.4-3.5v-0.4l0,0v-0.2c0-0.1,0-0.2,0-0.2c0-0.1,0-0.1,0-0.2s0-0.1,0-0.2
											c0-0.1,0-0.1,0-0.2c0-0.1,0-0.1,0-0.2c0-0.1,0-0.1,0-0.2c0-0.1,0-0.1,0-0.2c0-0.1,0-0.1,0-0.2v-0.2c0-0.1,0-0.1,0-0.2
											l-0.1-0.4v-0.2c0-0.1,0-0.1,0-0.2c0-0.1,0-0.1,0-0.2c0-0.1,0-0.1,0-0.2c0-0.1,0-0.1,0-0.2c0-0.1,0-0.1-0.1-0.2v-0.2
											c0-0.1,0-0.1-0.1-0.2c0-0.1,0-0.1,0-0.2c0-0.1,0-0.1,0-0.2c0-0.1,0-0.1-0.1-0.2c0-0.1,0-0.1,0-0.2l-0.1-0.2
											c0-0.1,0-0.1-0.1-0.2l-0.1-0.3l-0.1-0.2c0-0.1,0-0.1-0.1-0.2c0-0.1,0-0.1-0.1-0.2c0-0.1,0-0.1-0.1-0.2l-0.1-0.2
											c0-0.1,0-0.1-0.1-0.2l-0.4-0.1v-0.1l-0.1-0.2l-0.1-0.2c0-0.1-0.1-0.2-0.1-0.2l-0.1-0.1v-0.1l-0.1-0.2c0,0,0-0.1-0.1-0.1
											l0.2-0.1c-0.1-0.1-0.1-0.2-0.2-0.4c0,0,0-0.1-0.1-0.1l-0.1-0.2l-0.1-0.1l-0.1-0.2l-0.1-0.1l-0.1-0.2l-0.1-0.1l-0.2-0.2
											l-0.1-0.1l-0.2-0.2l-0.1-0.1c-0.1-0.1-0.2-0.2-0.3-0.3l0,0l-0.2-0.3l-0.1-0.2l-0.2-0.2l-0.1-0.1c0-0.1-0.1-0.1-0.2-0.1
											l0,0l-0.1-0.1l-0.1-0.1l-0.2-0.2l0,0l-0.1-0.1c-0.1-0.1-0.3-0.3-0.5-0.4l0,0C170.7,167.8,167.2,169.7,165.1,172.8"/>
									</g>
								</g>
							</g>
							<g>
								<g>
									<defs>
										<rect id="SVGID_31_" x="142.8" y="160.8" width="40" height="40"/>
									</defs>
									<clipPath id="SVGID_32_">
										<use xlink:href="#SVGID_31_"  style="overflow:visible;"/>
									</clipPath>
									<g class="st44">
										<path class="st37" d="M157.1,174.8c0.2-0.2,0.5-0.4,0.8-0.6l0.1-0.1l0,0c0.7-0.5,1.5-0.9,2.3-1.1l0,0h0.2h0.1h0.1h0.2l0,0
											c0.9-0.2,1.8-0.3,2.8-0.2h0.1h0.2h0.1h0.1c0.3,0.1,0.7,0.1,1,0.2c2-3.2,5.5-5.2,9.3-5.3c-0.9-0.8-1.8-1.5-2.8-2.1l0,0
											l-0.3-0.1h-0.1l0,0h-0.1h-0.1l-0.2-0.1l-0.2-0.1l-0.2-0.1l-0.2-0.1l-0.2-0.1l-0.1,0l-0.2-0.2l-0.2-0.1l-0.2-0.1l-0.2-0.1
											l-0.4-0.1l-0.2-0.1l-0.2-0.1l-0.2-0.1L168,164l-0.2-0.1l-0.2-0.1l-0.2-0.1h-0.2l-0.2-0.1h0l-0.2-0.1h-0.2h-0.2l-0.2-0.1
											l-0.3-0.1h-0.2h-0.2c-0.1,0-0.1,0-0.2,0h-0.2h-0.2h-0.2H164h-0.3h-2h-0.3h-0.2H161h-0.2h-0.2h-0.1h-0.3h-0.1l-0.4,0.1l0,0
											l-0.4,0.1h-0.1h-0.4h-0.2h-0.2l0,0h-0.1h-0.1l-0.2,0.1l0,0h-0.1l-0.6,0.2l0,0C155.4,167.4,155.3,171.4,157.1,174.8"/>
									</g>
								</g>
							</g>
						</g>
					</g>
				</g>
			</g>
		</g>
	</g>
</g>
<text id="headerSVG.prPipeline" transform="matrix(0.9993 0 0 1 132.9624 92.3848)" class="st45 st46">PR Pipeline</text>
<text id="headerSVG.cicdPipeline" transform="matrix(0.9993 0 0 1 249.7573 230.0483)" class="st45 st46">CI/CD Pipeline</text>
<text id="headerSVG.ibm" transform="matrix(0.9993 0 0 1 403.9658 230.0479)" class="st45 st46">IBM</text>
<text id="headerSVG.codeRisk" transform="matrix(0.9993 0 0 1 263.9839 92.3843)" class="st47 st45 st46">Code Risk</text>
<text id="headerSVG.analyzer" transform="matrix(0.9993 0 0 1 266.6025 107.2383)" class="st47 st45 st46">Analyzer</text>
<text id="headerSVG.issue" transform="matrix(0.9993 0 0 1 31.4341 230.0479)" class="st47 st45 st46">Issue</text>
<text id="headerSVG.tracker" transform="matrix(0.9993 0 0 1 25.7124 244.6689)" class="st47 st45 st46">Tracker</text>
<text id="headerSVG.IasC" transform="matrix(0.9993 0 0 1 147.2422 230.0483)" class="st47 st45 st46">I-as-C</text>
<text id="headerSVG.repo" transform="matrix(0.9993 0 0 1 150.4082 244.6685)" class="st47 st45 st46">Repo</text>
<text id="headerSVG.devops" transform="matrix(0.9993 0 0 1 269.8525 353.0854)" class="st47 st45 st46">DevOps</text>
<text id="headerSVG.insights" transform="matrix(0.9993 0 0 1 268.4678 369.3311)" class="st47 st45 st46">Insights</text>
<text id="headerSVG.cloud" transform="matrix(0.9993 0 0 1 399.5469 244.8525)" class="st45 st46">Cloud</text>
<text id="headerSVG.services" transform="matrix(0.9993 0 0 1 392.5396 259.1567)" class="st45 st46">Services</text>
</svg>
