<svg xmlns="http://www.w3.org/2000/svg" xmlns:xlink="http://www.w3.org/1999/xlink" viewBox="0 0 462.558 390">
  <defs>
    <linearGradient id="f79ff327-698b-4471-ac35-7edf92a0f037" x1="405.897" y1="172.329" x2="421.453" y2="187.885" gradientUnits="userSpaceOnUse">
      <stop offset="0.3" stop-opacity="0"/>
      <stop offset="0.68"/>
    </linearGradient>
    <linearGradient id="ae021d05-893e-49e8-8b73-a5be8c7f913c" x1="-11725.117" y1="-518.597" x2="-11711.117" y2="-518.597" gradientTransform="translate(12129.792 710.705)" gradientUnits="userSpaceOnUse">
      <stop offset="0.1"/>
      <stop offset="1" stop-opacity="0"/>
    </linearGradient>
    <clipPath id="ff9f59c8-cd1a-45a5-915f-145a6f3643f9">
      <rect x="20.774" y="162.607" width="40" height="40" fill="none"/>
    </clipPath>
    <clipPath id="b8d22e45-d0de-43cf-9c2d-d1e75d8c4f04">
      <rect x="143.444" y="162.607" width="40" height="40" fill="none"/>
    </clipPath>
    <mask id="a8a6a3c9-0ad6-4ec9-8015-f74d17da6b19" x="397.675" y="166.107" width="32" height="32" maskUnits="userSpaceOnUse">
      <g>
        <path d="M413.675,172.107h0a8.023,8.023,0,0,1,7.865,6.494l.259,1.346,1.349.244a5.5,5.5,0,0,1-.965,10.916H405.171a5.5,5.5,0,0,1-.97-10.916l1.349-.244.259-1.346a8.027,8.027,0,0,1,7.866-6.494m0-2a10.025,10.025,0,0,0-9.83,8.116,7.5,7.5,0,0,0,1.321,14.884h17.017a7.5,7.5,0,0,0,1.321-14.884,10.024,10.024,0,0,0-9.84-8.116Z" fill="#fff"/>
        <circle cx="413.675" cy="180.107" r="11" fill="url(#f79ff327-698b-4471-ac35-7edf92a0f037)"/>
        <rect x="417.675" y="178.107" width="12" height="17"/>
        <rect x="404.675" y="190.107" width="14" height="4" transform="translate(823.351 384.215) rotate(180)" fill="url(#ae021d05-893e-49e8-8b73-a5be8c7f913c)"/>
      </g>
    </mask>
    <linearGradient id="a12b3025-2273-42e4-8a95-6a0d025a5b10" x1="397.675" y1="198.107" x2="429.675" y2="166.107" gradientUnits="userSpaceOnUse">
      <stop offset="0.1" stop-color="#54b9b8"/>
      <stop offset="0.9" stop-color="#2467f4"/>
    </linearGradient>
  </defs>
  <g id="a7220813-13ee-4860-8b1e-afef67ec026f" data-name="Text">
    <line x1="379.779" y1="180.256" x2="319.779" y2="180.256" fill="none" stroke="#2467f4" stroke-miterlimit="10" stroke-width="2"/>
    <line x1="254.779" y1="180.256" x2="193.779" y2="180.256" fill="none" stroke="#2467f4" stroke-miterlimit="10" stroke-width="2"/>
    <line x1="132.779" y1="180.256" x2="71.779" y2="180.256" fill="none" stroke="#2467f4" stroke-miterlimit="10" stroke-width="2"/>
    <polyline points="240.485 196.256 256.485 180.256 240.485 164.256" fill="none" stroke="#2467f4" stroke-miterlimit="10" stroke-width="2"/>
    <polyline points="114.779 196.256 130.779 180.256 114.779 164.256" fill="none" stroke="#2467f4" stroke-miterlimit="10" stroke-width="2"/>
    <line id="aaaf3863-390b-41df-b676-538e1a207889" data-name="Dashed lin1" x1="288.153" y1="158.82" x2="288.153" y2="112.82" fill="none" stroke="#969696" stroke-miterlimit="10" stroke-dasharray="4 4"/>
    <polyline points="296.153 112.587 288.153 104.587 280.153 112.587" fill="none" stroke="#969696" stroke-miterlimit="10" stroke-width="2"/>
    <polyline points="365.485 196.256 381.485 180.256 365.485 164.256" fill="none" stroke="#2467f4" stroke-miterlimit="10" stroke-width="2"/>
    <line id="e73769dc-2667-4b7c-a09a-4cf150e0c78a" data-name="Dashed line2" x1="196.779" y1="46.32" x2="240.779" y2="46.32" fill="none" stroke="#969696" stroke-miterlimit="10" stroke-dasharray="4 4"/>
    <polyline points="241.885 53.787 249.885 45.787 241.885 37.787" fill="none" stroke="#969696" stroke-miterlimit="10" stroke-width="2"/>
    <g id="fd862803-5f9d-4c23-9ccc-c92b3e501345" data-name="CI Pipeline">
      <circle cx="288.153" cy="182.107" r="32" fill="#fff" stroke="#2467f4" stroke-miterlimit="10" stroke-width="2"/>
      <g id="b5dd737b-42a0-424e-9fe7-88a2911b5759" data-name="CI_CD_icon">
        <g id="a153f032-935c-41cd-be6a-6f7f420b3766" data-name="e18fe981-7760-4f0f-92d6-295e583f5df5">
          <g>
            <path d="M301.353,184.507a13.79,13.79,0,0,1-13.4,10.9,12.312,12.312,0,0,1-10.4-5.2l7.2-7.4.8.8-.8-.8h0l1.1,1.3,1.7-5.9-5.8,1.7,1.1,1.1-1.7,2-4.9,5a11.8,11.8,0,0,1-1.7-5.4l-2.1-3.1a8.129,8.129,0,0,0-.1,2.2,16.079,16.079,0,0,0,31.3,5.4Z" fill="#ec7f4c"/>
            <polyline points="276.053 188.007 282.753 181.007 281.853 179.807 287.553 178.207 277.553 188.107" fill="#f0a780"/>
          </g>
          <g>
            <path d="M287.856,198.1a16.176,16.176,0,0,0,15.2-10.9l-1.1-1.3a14.572,14.572,0,0,1-28.7-3.9v-.7l-.8-1.5a8.129,8.129,0,0,0-.1,2.2,15.71,15.71,0,0,0,15.2,16.1Z" fill="#f0a780"/>
            <line x1="276.053" y1="188.107" x2="277.553" y2="188.607" fill="none"/>
          </g>
        </g>
        <g id="fb7a82da-6bf2-4a89-9442-9ff151671268" data-name="b4a44eff-a6ab-4c1f-a314-3899682236f1">
          <g>
            <path d="M274.953,179.307a13.79,13.79,0,0,1,13.4-10.9,12.312,12.312,0,0,1,10.4,5.2l-7.2,7.4-.6-.8.8.8h0l-1.3-1.3-1.7,5.9,5.8-1.7-1.1-1.1,2-2,4.9-5a15.06,15.06,0,0,1,1.5,5.4l2.1,3.1a6.56,6.56,0,0,0,.1-2,16.261,16.261,0,0,0-16.1-16.3,15.928,15.928,0,0,0-14.9,10.9Z" fill="#53af9f"/>
            <polyline points="298.853 173.607 291.553 181.007 290.553 179.707 288.853 185.607 298.553 175.507" fill="#73d1c2"/>
          </g>
          <g>
            <path d="M287.656,166.007a16.176,16.176,0,0,0-15.2,10.9l1.1,1.3a14.572,14.572,0,0,1,28.7,3.9v.7l1.1,1.5a6.56,6.56,0,0,0,.1-2C303.356,173.107,296.356,166.007,287.656,166.007Z" fill="#73d1c2"/>
            <line x1="300.253" y1="175.507" x2="298.853" y2="175.107" fill="none"/>
          </g>
        </g>
      </g>
    </g>
    <g id="a4c90145-adcc-4f8d-b609-d0e82dfe4f5b" data-name="DevOps_insights">
      <g id="ad002ab3-e9f4-498f-ae6a-c77ba268068a" data-name="Evidence">
        <circle cx="288.153" cy="46.934" r="32" fill="#fff" stroke="#000" stroke-miterlimit="10"/>
      </g>
      <g>
        <rect x="280.448" y="40.82" width="8" height="2"/>
        <rect x="280.448" y="36.82" width="12" height="2"/>
        <rect x="280.448" y="32.82" width="12" height="2"/>
        <path d="M277.248,58.82l5.6-10,7.4,6.5a2.155,2.155,0,0,0,1.7.5,2.068,2.068,0,0,0,1.4-1l7-10.4-1.7-1.1-7,10.4-.1.1-7.4-6.5a2.155,2.155,0,0,0-1.7-.5,2.068,2.068,0,0,0-1.4,1l-4.6,8.1V32.82h-2v26a2.006,2.006,0,0,0,2,2h26v-2Z"/>
        <rect id="b63e5ca4-553a-4586-b094-bebfa17b9bec" data-name="&lt;Transparent Rectangle&gt;" x="272.448" y="30.82" width="32" height="32" fill="none"/>
      </g>
    </g>
    <g id="e381f8b6-86d4-4422-b885-5b137c9814ec" data-name="DevOps_insights">
      <g id="ab6282c2-d12c-4ec6-ba82-7472473dd231" data-name="Evidence">
        <circle cx="289.169" cy="299.587" r="32" fill="#fff" stroke="#000" stroke-miterlimit="10"/>
      </g>
      <g id="ff0d0f7a-2157-4bce-8c4d-426a89f9afb9" data-name="DevOps_icon">
        <path d="M293.269,310.587l-7.6.5a1.5,1.5,0,0,1-1.4-1.1h0a1.3,1.3,0,0,1,1.2-1.3l7.6-.5a1.5,1.5,0,0,1,1.4,1.1h0A1.38,1.38,0,0,1,293.269,310.587Z" fill="#303737"/>
        <path d="M293.269,314.087l-7.6.5a1.32,1.32,0,0,1-1.4-1.1h0a1.3,1.3,0,0,1,1.2-1.3l7.6-.5a1.5,1.5,0,0,1,1.4,1.1h0A1.38,1.38,0,0,1,293.269,314.087Z" fill="#303737"/>
        <path d="M285.779,316.087h0a4.006,4.006,0,0,0,8-.374v-.226Z" fill="#5a6565"/>
        <g>
          <path d="M301.579,291.02a11.8,11.8,0,0,0-23.6,0,11.623,11.623,0,0,0,3,7.7c1.9,2.3,2.8,3,2.8,6.8v.3a1.075,1.075,0,0,0,1,1h10a1,1,0,0,0,1-1v-.2c0-4,1-4.6,3-7.2h0A11.167,11.167,0,0,0,301.579,291.02Z" fill="#f8e58c"/>
          <path d="M298.669,298.487l.1-.2C298.769,298.387,298.769,298.487,298.669,298.487Z" fill="#f8e58c"/>
        </g>
        <path d="M301.579,291.02a11.714,11.714,0,0,0-11.8-11.6v27.4h5a1,1,0,0,0,1-1v-.2c0-4,1-4.6,3-7.2h0A11.167,11.167,0,0,0,301.579,291.02Z" fill="#f5d356"/>
        <path d="M294.779,313.087v-.4a1.09,1.09,0,0,0-1.1-1l-3.9.3v2.4l4.1-.3a.987.987,0,0,0,.9-1Z" fill="#030506"/>
        <path d="M294.779,309.487v-.4a1.09,1.09,0,0,0-1.1-1l-3.9.4v2.4l4.1-.3A1.172,1.172,0,0,0,294.779,309.487Z" fill="#030506"/>
        <path d="M293.779,315.287l-4,.3v3.9a4.188,4.188,0,0,0,4-4.2Z" fill="#3f4747"/>
        <ellipse cx="289.369" cy="291.287" rx="7.5" ry="7.2" fill="#8d61c9"/>
        <path d="M289.779,283.987v14.5a7.3,7.3,0,0,0,7.5-7.2A7.383,7.383,0,0,0,289.779,283.987Z" fill="#e8559d"/>
        <path d="M295.069,295.887a7.018,7.018,0,0,0,1.6-5.9l-7.4,1.3-4.8,5.5A7.666,7.666,0,0,0,295.069,295.887Z" fill="#7ab757"/>
      </g>
    </g>
    <g id="fc95fd62-b2b5-4be7-8e35-d04d945badc8" data-name="PR Pipeline">
      <circle cx="163.944" cy="45.587" r="32" fill="#fff" stroke="#000" stroke-miterlimit="10"/>
      <g id="b7c9c755-c36f-4810-8e0f-6c81a084623e" data-name="CI_CD_icon">
        <g id="b3a55e52-5928-433c-88b2-ab122f3bb5b4" data-name="e18fe981-7760-4f0f-92d6-295e583f5df5">
          <g>
            <path d="M176.944,47.787a13.79,13.79,0,0,1-13.4,10.9,12.314,12.314,0,0,1-10.4-5.2l7.2-7.4.8.8-.8-.8h0l1.1,1.3,1.7-5.9-5.8,1.7,1.1,1.1-1.7,2-4.9,5a11.8,11.8,0,0,1-1.7-5.4l-2.1-3.1a8.129,8.129,0,0,0-.1,2.2,16.079,16.079,0,0,0,31.3,5.4Z" fill="#ec7f4c"/>
            <polyline points="151.644 51.187 158.344 44.287 157.344 43.087 163.144 41.487 153.144 51.387" fill="#f0a780"/>
          </g>
          <g>
            <path d="M163.543,60.82a16.175,16.175,0,0,0,15.2-10.9l-1.1-1.3a14.572,14.572,0,0,1-28.7-3.9v-.7l-.8-1.5a8.129,8.129,0,0,0-.1,2.2,15.71,15.71,0,0,0,15.2,16.1Z" fill="#f0a780"/>
            <line x1="151.644" y1="51.387" x2="153.144" y2="51.887" fill="none"/>
          </g>
        </g>
        <g id="f3c4d74c-48c1-4da3-b8cf-fdde7bbfeb7d" data-name="b4a44eff-a6ab-4c1f-a314-3899682236f1">
          <g>
            <path d="M150.444,42.587a13.789,13.789,0,0,1,13.4-10.9,12.312,12.312,0,0,1,10.4,5.2l-7.2,7.4-.6-.8.8.8h0l-1.3-1.3-1.7,5.9,5.8-1.7-1.1-1.1,2-2,4.9-5a15.06,15.06,0,0,1,1.5,5.4l2.1,3.1a6.56,6.56,0,0,0,.1-2,16.261,16.261,0,0,0-16.1-16.3,15.928,15.928,0,0,0-14.9,10.9Z" fill="#53af9f"/>
            <polyline points="174.444 36.887 167.043 44.287 166.144 42.987 164.444 48.887 174.144 38.787" fill="#73d1c2"/>
          </g>
          <g>
            <path d="M164.344,29.287a16.176,16.176,0,0,0-15.2,10.9l1.1,1.3a14.572,14.572,0,0,1,28.7,3.9v.7l1.1,1.5a6.56,6.56,0,0,0,.1-2C180.043,36.387,173.043,29.287,164.344,29.287Z" fill="#73d1c2"/>
            <line x1="175.844" y1="38.787" x2="174.444" y2="38.387" fill="none"/>
          </g>
        </g>
      </g>
    </g>
    <g id="e1bfb998-7f19-4f13-957d-9f7b59475f64" data-name="App Repo">
      <circle cx="413.675" cy="182.107" r="32" fill="#fff" stroke="#000" stroke-miterlimit="10"/>
    </g>
    <g style="isolation: isolate">
      <path d="M127.073,97.258V87.485h4.616a3.144,3.144,0,0,1,1.233.232,2.718,2.718,0,0,1,.929.637,2.791,2.791,0,0,1,.595.987,3.948,3.948,0,0,1,0,2.541,2.8,2.8,0,0,1-.595.979,2.721,2.721,0,0,1-.929.638,3.162,3.162,0,0,1-1.233.231H129.2v3.528Zm2.126-5.376h2.239a1.077,1.077,0,0,0,.748-.245.914.914,0,0,0,.273-.721V90.3a.919.919,0,0,0-.273-.722,1.076,1.076,0,0,0-.748-.244H129.2Z"/>
      <path d="M138.377,97.258H136.25V87.485h4.631a3.183,3.183,0,0,1,1.217.225,2.6,2.6,0,0,1,.931.637,2.88,2.88,0,0,1,.594.987,3.685,3.685,0,0,1,.211,1.274,3.334,3.334,0,0,1-.442,1.736,2.527,2.527,0,0,1-1.336,1.078l1.916,3.836h-2.363L139.9,93.674h-1.525Zm2.238-5.376a1.08,1.08,0,0,0,.748-.245.914.914,0,0,0,.273-.721V90.3a.919.919,0,0,0-.273-.722,1.08,1.08,0,0,0-.748-.244h-2.238v2.548Z"/>
      <path d="M148.981,97.258V87.485H153.6a3.14,3.14,0,0,1,1.233.232,2.722,2.722,0,0,1,.93.637,2.789,2.789,0,0,1,.594.987,3.948,3.948,0,0,1,0,2.541,2.8,2.8,0,0,1-.594.979,2.725,2.725,0,0,1-.93.638,3.158,3.158,0,0,1-1.233.231h-2.49v3.528Zm2.126-5.376h2.239a1.077,1.077,0,0,0,.748-.245.914.914,0,0,0,.273-.721V90.3a.919.919,0,0,0-.273-.722,1.076,1.076,0,0,0-.748-.244h-2.239Z"/>
      <path d="M159.082,89.124a1.256,1.256,0,0,1-.916-.287.992.992,0,0,1-.287-.735v-.308a.992.992,0,0,1,.287-.735,1.607,1.607,0,0,1,1.833,0,1,1,0,0,1,.286.735V88.1a1,1,0,0,1-.286.735A1.258,1.258,0,0,1,159.082,89.124Zm-1.035.783h2.07v7.351h-2.07Z"/>
      <path d="M162.049,89.907h2.07V91.14h.07a1.718,1.718,0,0,1,.706-1.008,2.129,2.129,0,0,1,1.267-.393,2.443,2.443,0,0,1,2.111.981,6.083,6.083,0,0,1,0,5.719,2.435,2.435,0,0,1-2.111.987,2.166,2.166,0,0,1-.686-.106,2.037,2.037,0,0,1-.581-.294,1.871,1.871,0,0,1-.44-.448,1.8,1.8,0,0,1-.266-.552h-.07v4.032h-2.07Zm3.427,5.838a1.27,1.27,0,0,0,.972-.412,1.565,1.565,0,0,0,.385-1.113V92.945a1.565,1.565,0,0,0-.385-1.112,1.274,1.274,0,0,0-.972-.413,1.581,1.581,0,0,0-.972.287.931.931,0,0,0-.385.791v2.17a.931.931,0,0,0,.385.791A1.574,1.574,0,0,0,165.476,95.745Z"/>
      <path d="M173.618,97.426a3.853,3.853,0,0,1-1.5-.274,3.072,3.072,0,0,1-1.112-.769,3.219,3.219,0,0,1-.686-1.211A5.639,5.639,0,0,1,170.316,92a3.351,3.351,0,0,1,.664-1.211,2.941,2.941,0,0,1,1.084-.777,3.741,3.741,0,0,1,1.47-.274,3.626,3.626,0,0,1,1.56.309,2.938,2.938,0,0,1,1.063.826,3.347,3.347,0,0,1,.6,1.2,5.285,5.285,0,0,1,.188,1.421v.617h-4.715v.111a1.616,1.616,0,0,0,.393,1.145,1.6,1.6,0,0,0,1.23.423,1.926,1.926,0,0,0,1.05-.257,4.072,4.072,0,0,0,.755-.617L176.7,96.2a3.261,3.261,0,0,1-1.279.9A4.732,4.732,0,0,1,173.618,97.426Zm-.042-6.16a1.231,1.231,0,0,0-.986.413,1.615,1.615,0,0,0-.358,1.1v.113h2.574v-.126a1.8,1.8,0,0,0-.3-1.085A1.072,1.072,0,0,0,173.576,91.266Z"/>
      <path d="M180.472,97.258a1.8,1.8,0,0,1-2.056-2.017V86.9h2.07v8.75h.924v1.61Z"/>
      <path d="M183.691,89.124a1.254,1.254,0,0,1-.916-.287,1,1,0,0,1-.287-.735v-.308a1,1,0,0,1,.287-.735,1.605,1.605,0,0,1,1.832,0,.992.992,0,0,1,.287.735V88.1a.992.992,0,0,1-.287.735A1.254,1.254,0,0,1,183.691,89.124Zm-1.035.783h2.07v7.351h-2.07Z"/>
      <path d="M186.656,97.258V89.907h2.07v1.246h.084a2.272,2.272,0,0,1,.686-.994,2.355,2.355,0,0,1,3.071.336,3.477,3.477,0,0,1,.581,2.156v4.607h-2.07V92.819a1.958,1.958,0,0,0-.225-1.056.877.877,0,0,0-.8-.343,1.9,1.9,0,0,0-.49.063,1.243,1.243,0,0,0-.426.2,1.044,1.044,0,0,0-.3.342.945.945,0,0,0-.114.47v4.76Z"/>
      <path d="M198.058,97.426a3.86,3.86,0,0,1-1.5-.274,3.081,3.081,0,0,1-1.112-.769,3.26,3.26,0,0,1-.686-1.211A5.651,5.651,0,0,1,194.757,92a3.323,3.323,0,0,1,.665-1.211,2.908,2.908,0,0,1,1.084-.777,3.724,3.724,0,0,1,1.468-.274,3.634,3.634,0,0,1,1.561.309,2.926,2.926,0,0,1,1.062.826,3.315,3.315,0,0,1,.6,1.2,5.286,5.286,0,0,1,.189,1.421v.617h-4.714v.111a1.427,1.427,0,0,0,1.623,1.568,1.928,1.928,0,0,0,1.048-.257,4.144,4.144,0,0,0,.756-.617l1.035,1.291a3.265,3.265,0,0,1-1.28.9A4.725,4.725,0,0,1,198.058,97.426Zm-.042-6.16a1.23,1.23,0,0,0-.986.413,1.624,1.624,0,0,0-.356,1.1v.113h2.574v-.126a1.8,1.8,0,0,0-.3-1.085A1.075,1.075,0,0,0,198.016,91.266Z"/>
    </g>
    <g style="isolation: isolate">
      <g style="isolation: isolate">
        <path d="M23.885,232.678v-1.694h1.257V224.6H23.885v-1.695h4.644V224.6h-1.26v6.384h1.26v1.694Z"/>
        <path d="M32.613,232.846a3.84,3.84,0,0,1-3.092-1.317l1.218-1.231a3.166,3.166,0,0,0,.867.686,2.281,2.281,0,0,0,1.077.251,1.421,1.421,0,0,0,.854-.188.621.621,0,0,0,.238-.512c0-.344-.248-.55-.742-.615l-.8-.1q-2.476-.307-2.476-2.267a2.292,2.292,0,0,1,.2-.974,2.157,2.157,0,0,1,.573-.756,2.661,2.661,0,0,1,.895-.489,3.721,3.721,0,0,1,1.182-.176,6.09,6.09,0,0,1,1.015.077,3.519,3.519,0,0,1,.784.225,3.05,3.05,0,0,1,.629.363,6.709,6.709,0,0,1,.566.484l-1.189,1.218a2.692,2.692,0,0,0-.79-.553,2.128,2.128,0,0,0-.9-.2,1.281,1.281,0,0,0-.755.168.53.53,0,0,0-.224.448.618.618,0,0,0,.161.455,1.115,1.115,0,0,0,.608.23l.827.113q2.419.323,2.419,2.212a2.155,2.155,0,0,1-.224.98,2.292,2.292,0,0,1-.636.776,3.007,3.007,0,0,1-.993.511A4.3,4.3,0,0,1,32.613,232.846Z"/>
        <path d="M39.567,232.846a3.84,3.84,0,0,1-3.092-1.317l1.218-1.231a3.136,3.136,0,0,0,.867.686,2.274,2.274,0,0,0,1.076.251,1.419,1.419,0,0,0,.854-.188.619.619,0,0,0,.238-.512c0-.344-.247-.55-.741-.615l-.8-.1q-2.475-.307-2.476-2.267a2.308,2.308,0,0,1,.2-.974,2.16,2.16,0,0,1,.574-.756,2.641,2.641,0,0,1,.895-.489,3.712,3.712,0,0,1,1.182-.176,6.1,6.1,0,0,1,1.015.077,3.525,3.525,0,0,1,.783.225,3,3,0,0,1,.629.363,6.719,6.719,0,0,1,.567.484l-1.189,1.218a2.718,2.718,0,0,0-.79-.553,2.128,2.128,0,0,0-.9-.2,1.277,1.277,0,0,0-.755.168.53.53,0,0,0-.224.448.618.618,0,0,0,.161.455,1.118,1.118,0,0,0,.608.23l.826.113q2.419.323,2.42,2.212a2.168,2.168,0,0,1-.224.98,2.292,2.292,0,0,1-.636.776,3.012,3.012,0,0,1-.994.511A4.29,4.29,0,0,1,39.567,232.846Z"/>
        <path d="M48.465,231.445h-.071a2.5,2.5,0,0,1-.258.533,1.8,1.8,0,0,1-.413.448,1.942,1.942,0,0,1-.594.308,2.573,2.573,0,0,1-.791.112,2.034,2.034,0,0,1-1.713-.749,3.442,3.442,0,0,1-.581-2.15v-4.62h2.071v4.439a1.889,1.889,0,0,0,.237,1.036.9.9,0,0,0,.812.363,1.665,1.665,0,0,0,.475-.069,1.338,1.338,0,0,0,.419-.2,1.068,1.068,0,0,0,.3-.329.914.914,0,0,0,.112-.462v-4.775h2.07v7.351h-2.07Z"/>
        <path d="M55.53,232.846a3.853,3.853,0,0,1-1.5-.274,3.072,3.072,0,0,1-1.112-.769,3.219,3.219,0,0,1-.686-1.211,5.639,5.639,0,0,1-.007-3.171,3.351,3.351,0,0,1,.664-1.211,2.949,2.949,0,0,1,1.084-.777,3.741,3.741,0,0,1,1.47-.274,3.623,3.623,0,0,1,1.56.309,2.938,2.938,0,0,1,1.063.826,3.331,3.331,0,0,1,.6,1.2,5.28,5.28,0,0,1,.188,1.421v.616H54.144v.112a1.616,1.616,0,0,0,.393,1.145,1.6,1.6,0,0,0,1.23.423,1.926,1.926,0,0,0,1.05-.257,4.072,4.072,0,0,0,.755-.617l1.035,1.291a3.261,3.261,0,0,1-1.279.9A4.728,4.728,0,0,1,55.53,232.846Zm-.042-6.16a1.231,1.231,0,0,0-.986.413,1.615,1.615,0,0,0-.358,1.1v.113h2.575v-.126a1.8,1.8,0,0,0-.3-1.085A1.071,1.071,0,0,0,55.488,226.686Z"/>
      </g>
      <g style="isolation: isolate">
        <path d="M21.722,241.6v7.882H19.6V241.6H16.952v-1.89h7.415v1.89Z"/>
        <path d="M25.08,249.478v-7.35h2.07v1.6h.07a2.321,2.321,0,0,1,.2-.595,1.843,1.843,0,0,1,.371-.511,1.745,1.745,0,0,1,.553-.357,1.959,1.959,0,0,1,.755-.133h.364v1.932h-.518a2.95,2.95,0,0,0-1.349.238.911.911,0,0,0-.442.882v4.3Z"/>
        <path d="M35.965,249.478a1.3,1.3,0,0,1-.93-.35,1.6,1.6,0,0,1-.469-.938h-.084a1.7,1.7,0,0,1-.742,1.085,2.554,2.554,0,0,1-1.413.371,2.3,2.3,0,0,1-1.692-.586,2.088,2.088,0,0,1-.588-1.549,1.931,1.931,0,0,1,.846-1.724,4.094,4.094,0,0,1,2.3-.565h1.16v-.462a1.231,1.231,0,0,0-.279-.847,1.2,1.2,0,0,0-.938-.315,1.623,1.623,0,0,0-.978.266,2.624,2.624,0,0,0-.6.6l-1.232-1.1a3.23,3.23,0,0,1,1.127-1.034,3.828,3.828,0,0,1,1.84-.373,3.478,3.478,0,0,1,2.349.686,2.518,2.518,0,0,1,.784,2v3.22h.685v1.61ZM33.1,248.2a1.7,1.7,0,0,0,.889-.222.778.778,0,0,0,.37-.723V246.4H33.348q-1.216,0-1.217.82v.208a.689.689,0,0,0,.252.591A1.177,1.177,0,0,0,33.1,248.2Z"/>
        <path d="M41.463,249.646a3.726,3.726,0,0,1-1.469-.273,2.9,2.9,0,0,1-1.078-.77,3.324,3.324,0,0,1-.657-1.211,5.3,5.3,0,0,1-.224-1.6,5.227,5.227,0,0,1,.224-1.589A3.4,3.4,0,0,1,38.916,243a2.807,2.807,0,0,1,1.078-.77,3.818,3.818,0,0,1,1.469-.266,3.269,3.269,0,0,1,1.867.5,2.764,2.764,0,0,1,1.07,1.414l-1.679.728a1.407,1.407,0,0,0-.4-.714,1.181,1.181,0,0,0-.853-.294,1.131,1.131,0,0,0-.952.413,1.766,1.766,0,0,0-.322,1.113V246.5a1.737,1.737,0,0,0,.322,1.106,1.14,1.14,0,0,0,.952.406,1.267,1.267,0,0,0,.888-.3,1.782,1.782,0,0,0,.483-.791l1.608.7a2.868,2.868,0,0,1-1.126,1.54A3.357,3.357,0,0,1,41.463,249.646Z"/>
        <path d="M45.729,239.118H47.8v6.117h.084l.909-1.357,1.468-1.75h2.295l-2.448,2.814,2.728,4.536H50.374l-1.652-3.108-.922,1.036v2.072H45.729Z"/>
        <path d="M56.488,249.646a3.872,3.872,0,0,1-1.5-.273,3.075,3.075,0,0,1-1.112-.77,3.246,3.246,0,0,1-.686-1.211,5.663,5.663,0,0,1-.007-3.171,3.346,3.346,0,0,1,.665-1.211,2.939,2.939,0,0,1,1.084-.777,3.729,3.729,0,0,1,1.469-.273,3.634,3.634,0,0,1,1.561.308,2.956,2.956,0,0,1,1.062.826,3.32,3.32,0,0,1,.6,1.2,5.27,5.27,0,0,1,.189,1.421v.616H55.1v.111a1.429,1.429,0,0,0,1.623,1.569,1.938,1.938,0,0,0,1.049-.257,4.109,4.109,0,0,0,.756-.618l1.035,1.292a3.27,3.27,0,0,1-1.28.9A4.725,4.725,0,0,1,56.488,249.646Zm-.042-6.161a1.234,1.234,0,0,0-.986.414A1.622,1.622,0,0,0,55.1,245v.111h2.575v-.125a1.8,1.8,0,0,0-.3-1.085A1.078,1.078,0,0,0,56.446,243.485Z"/>
        <path d="M61.287,249.478v-7.35h2.07v1.6h.071a2.244,2.244,0,0,1,.2-.595,1.843,1.843,0,0,1,.371-.511,1.733,1.733,0,0,1,.553-.357,1.955,1.955,0,0,1,.755-.133h.364v1.932h-.518a2.954,2.954,0,0,0-1.35.238.912.912,0,0,0-.441.882v4.3Z"/>
      </g>
    </g>
    <g style="isolation: isolate">
      <g style="isolation: isolate">
        <path d="M144.029,232.678v-1.694h1.26V224.6h-1.26v-1.695h4.645V224.6h-1.259v6.384h1.259v1.694Z"/>
        <path d="M149.7,229.415V227.4h4.155v2.015Z"/>
        <path d="M160.986,232.678a1.3,1.3,0,0,1-.931-.351,1.6,1.6,0,0,1-.468-.937H159.5a1.707,1.707,0,0,1-.742,1.085,2.551,2.551,0,0,1-1.414.371,2.29,2.29,0,0,1-1.691-.586,2.087,2.087,0,0,1-.588-1.55,1.931,1.931,0,0,1,.846-1.724,4.1,4.1,0,0,1,2.3-.564h1.161v-.462a1.234,1.234,0,0,0-.28-.848,1.2,1.2,0,0,0-.937-.314,1.629,1.629,0,0,0-.98.266,2.615,2.615,0,0,0-.6.6l-1.232-1.1a3.217,3.217,0,0,1,1.127-1.036,3.838,3.838,0,0,1,1.839-.373,3.488,3.488,0,0,1,2.351.687,2.523,2.523,0,0,1,.783,2v3.22h.686v1.61Zm-2.869-1.275a1.707,1.707,0,0,0,.889-.221.778.778,0,0,0,.371-.723V229.6h-1.008q-1.217,0-1.217.819v.209a.686.686,0,0,0,.252.59A1.177,1.177,0,0,0,158.117,231.4Z"/>
        <path d="M166.008,232.846a3.836,3.836,0,0,1-3.092-1.317l1.217-1.231a3.166,3.166,0,0,0,.867.686,2.28,2.28,0,0,0,1.078.251,1.421,1.421,0,0,0,.853-.188.619.619,0,0,0,.238-.512c0-.344-.247-.55-.741-.615l-.8-.1q-2.478-.307-2.476-2.267a2.292,2.292,0,0,1,.2-.974,2.193,2.193,0,0,1,.573-.756,2.68,2.68,0,0,1,.9-.489,3.712,3.712,0,0,1,1.182-.176,6.065,6.065,0,0,1,1.013.077,3.488,3.488,0,0,1,.784.225,3.006,3.006,0,0,1,.63.363,7.05,7.05,0,0,1,.567.484l-1.19,1.218a2.683,2.683,0,0,0-.791-.553,2.117,2.117,0,0,0-.9-.2,1.281,1.281,0,0,0-.755.168.533.533,0,0,0-.224.448.614.614,0,0,0,.161.455,1.118,1.118,0,0,0,.609.23l.825.113q2.419.323,2.421,2.212a2.155,2.155,0,0,1-.225.98,2.281,2.281,0,0,1-.636.776,3.017,3.017,0,0,1-.993.511A4.3,4.3,0,0,1,166.008,232.846Z"/>
        <path d="M170.345,229.415V227.4H174.5v2.015Z"/>
        <path d="M180.473,232.846a4.837,4.837,0,0,1-1.79-.316,3.548,3.548,0,0,1-1.357-.937,4.316,4.316,0,0,1-.867-1.555,6.942,6.942,0,0,1-.309-2.177,7.163,7.163,0,0,1,.309-2.19,4.568,4.568,0,0,1,.867-1.61,3.626,3.626,0,0,1,1.357-.988,4.587,4.587,0,0,1,1.79-.336,4.148,4.148,0,0,1,2.239.553,3.817,3.817,0,0,1,1.413,1.743l-1.832.952a2.188,2.188,0,0,0-.61-.987,1.754,1.754,0,0,0-1.21-.37,1.956,1.956,0,0,0-1.5.608,2.516,2.516,0,0,0-.566,1.772v1.567a2.513,2.513,0,0,0,.566,1.772,1.956,1.956,0,0,0,1.5.608,1.779,1.779,0,0,0,1.252-.427,2.578,2.578,0,0,0,.693-1.029l1.735,1.009a4.357,4.357,0,0,1-1.434,1.728A3.875,3.875,0,0,1,180.473,232.846Z"/>
      </g>
      <g style="isolation: isolate">
        <path d="M150.408,249.478h-2.126v-9.772h4.631a3.172,3.172,0,0,1,1.218.224,2.611,2.611,0,0,1,.929.637,2.882,2.882,0,0,1,.595.987,3.685,3.685,0,0,1,.21,1.274,3.327,3.327,0,0,1-.441,1.736,2.518,2.518,0,0,1-1.336,1.078l1.917,3.836H153.64l-1.707-3.584h-1.525Zm2.239-5.376a1.072,1.072,0,0,0,.748-.245.917.917,0,0,0,.273-.721v-.616a.914.914,0,0,0-.273-.721,1.077,1.077,0,0,0-.748-.245h-2.239V244.1Z"/>
        <path d="M160.454,249.646a3.872,3.872,0,0,1-1.5-.273,3.087,3.087,0,0,1-1.113-.77,3.23,3.23,0,0,1-.685-1.211,5.639,5.639,0,0,1-.007-3.171,3.359,3.359,0,0,1,.664-1.211,2.964,2.964,0,0,1,1.084-.777,3.741,3.741,0,0,1,1.47-.273,3.618,3.618,0,0,1,1.559.308,2.955,2.955,0,0,1,1.064.826,3.334,3.334,0,0,1,.6,1.2,5.27,5.27,0,0,1,.189,1.421v.616h-4.715v.111a1.432,1.432,0,0,0,1.623,1.569,1.937,1.937,0,0,0,1.05-.257,4.1,4.1,0,0,0,.755-.618l1.035,1.292a3.259,3.259,0,0,1-1.279.9A4.732,4.732,0,0,1,160.454,249.646Zm-.042-6.161a1.235,1.235,0,0,0-.986.414,1.617,1.617,0,0,0-.358,1.1v.111h2.574v-.125a1.8,1.8,0,0,0-.3-1.085A1.075,1.075,0,0,0,160.412,243.485Z"/>
        <path d="M165.252,242.128h2.07v1.231h.07a1.724,1.724,0,0,1,.707-1.007,2.136,2.136,0,0,1,1.266-.392,2.445,2.445,0,0,1,2.113.98,6.091,6.091,0,0,1,0,5.719,2.44,2.44,0,0,1-2.113.987,2.234,2.234,0,0,1-.686-.1,2.057,2.057,0,0,1-.58-.294,1.913,1.913,0,0,1-.441-.448,1.868,1.868,0,0,1-.266-.553h-.07v4.031h-2.07Zm3.427,5.838a1.273,1.273,0,0,0,.973-.413,1.572,1.572,0,0,0,.385-1.113v-1.274a1.569,1.569,0,0,0-.385-1.113,1.27,1.27,0,0,0-.973-.413,1.581,1.581,0,0,0-.972.287.933.933,0,0,0-.385.791v2.17a.935.935,0,0,0,.385.791A1.587,1.587,0,0,0,168.679,247.966Z"/>
        <path d="M176.738,249.646a3.734,3.734,0,0,1-1.448-.266,2.9,2.9,0,0,1-1.077-.771,3.484,3.484,0,0,1-.678-1.217,5.47,5.47,0,0,1,0-3.192,3.42,3.42,0,0,1,.678-1.211,2.909,2.909,0,0,1,1.077-.763,4.071,4.071,0,0,1,2.9,0,2.913,2.913,0,0,1,1.078.763,3.436,3.436,0,0,1,.678,1.211,5.47,5.47,0,0,1,0,3.192,3.5,3.5,0,0,1-.678,1.217,2.9,2.9,0,0,1-1.078.771A3.726,3.726,0,0,1,176.738,249.646Zm0-1.638a1.2,1.2,0,0,0,.951-.378,1.565,1.565,0,0,0,.336-1.078v-1.5a1.565,1.565,0,0,0-.336-1.078,1.385,1.385,0,0,0-1.9,0,1.565,1.565,0,0,0-.336,1.078v1.5a1.565,1.565,0,0,0,.336,1.078A1.206,1.206,0,0,0,176.738,248.008Z"/>
      </g>
    </g>
    <g style="isolation: isolate">
      <path d="M279.115,99.2a4.834,4.834,0,0,1-1.79-.314,3.542,3.542,0,0,1-1.357-.939,4.293,4.293,0,0,1-.868-1.553,6.958,6.958,0,0,1-.307-2.177,7.172,7.172,0,0,1,.307-2.191,4.585,4.585,0,0,1,.868-1.611,3.622,3.622,0,0,1,1.357-.986,4.548,4.548,0,0,1,1.79-.336,4.147,4.147,0,0,1,2.238.553,3.818,3.818,0,0,1,1.414,1.743l-1.833.952a2.183,2.183,0,0,0-.608-.987,1.758,1.758,0,0,0-1.211-.371,1.958,1.958,0,0,0-1.5.609,2.509,2.509,0,0,0-.566,1.77v1.569a2.509,2.509,0,0,0,.566,1.77,1.956,1.956,0,0,0,1.5.61,1.79,1.79,0,0,0,1.252-.427,2.6,2.6,0,0,0,.693-1.029L282.8,96.86a4.342,4.342,0,0,1-1.434,1.73A3.894,3.894,0,0,1,279.115,99.2Z" fill="#161616"/>
      <path d="M286.4,99.03h-2.127V89.259h4.631a3.172,3.172,0,0,1,1.218.224,2.617,2.617,0,0,1,.93.636,2.879,2.879,0,0,1,.594.988,3.657,3.657,0,0,1,.211,1.274,3.33,3.33,0,0,1-.441,1.735,2.521,2.521,0,0,1-1.336,1.078L292,99.03h-2.364l-1.707-3.584H286.4Zm2.238-5.376a1.072,1.072,0,0,0,.748-.245.914.914,0,0,0,.274-.72v-.617a.914.914,0,0,0-.274-.72,1.077,1.077,0,0,0-.748-.245H286.4v2.547Z" fill="#161616"/>
      <path d="M299.722,99.03l-.7-2.324h-3.26l-.7,2.324H292.91l3.217-9.771h2.631l3.175,9.771Zm-2.308-7.839h-.07l-1.077,3.71h2.239Z" fill="#161616"/>
    </g>
    <g style="isolation: isolate">
      <path d="M244.463,233.63a4.839,4.839,0,0,1-1.791-.314,3.545,3.545,0,0,1-1.358-.939,4.311,4.311,0,0,1-.867-1.554,6.95,6.95,0,0,1-.308-2.176,7.177,7.177,0,0,1,.308-2.192,4.594,4.594,0,0,1,.867-1.61,3.6,3.6,0,0,1,1.358-.986,4.553,4.553,0,0,1,1.791-.336,4.152,4.152,0,0,1,2.238.552,3.808,3.808,0,0,1,1.412,1.743l-1.832.953a2.182,2.182,0,0,0-.609-.988,1.755,1.755,0,0,0-1.209-.371,1.953,1.953,0,0,0-1.5.61,2.5,2.5,0,0,0-.567,1.77v1.568a2.5,2.5,0,0,0,.567,1.771,1.956,1.956,0,0,0,1.5.609,1.793,1.793,0,0,0,1.252-.426,2.6,2.6,0,0,0,.692-1.03l1.735,1.008a4.355,4.355,0,0,1-1.434,1.73A3.893,3.893,0,0,1,244.463,233.63Z"/>
      <path d="M249.247,233.462v-1.693h1.259v-6.385h-1.259v-1.693h4.644v1.693h-1.258v6.385h1.258v1.693Z"/>
      <path d="M254.633,235.576,258.8,223.1h1.707l-4.169,12.473Z"/>
      <path d="M265.741,233.63a4.834,4.834,0,0,1-1.79-.314,3.542,3.542,0,0,1-1.357-.939,4.3,4.3,0,0,1-.868-1.554,6.95,6.95,0,0,1-.308-2.176,7.177,7.177,0,0,1,.308-2.192,4.58,4.58,0,0,1,.868-1.61,3.6,3.6,0,0,1,1.357-.986,4.548,4.548,0,0,1,1.79-.336,4.147,4.147,0,0,1,2.238.552,3.816,3.816,0,0,1,1.413,1.743l-1.832.953a2.182,2.182,0,0,0-.609-.988,1.756,1.756,0,0,0-1.21-.371,1.954,1.954,0,0,0-1.5.61,2.5,2.5,0,0,0-.566,1.77v1.568a2.506,2.506,0,0,0,.566,1.771,1.957,1.957,0,0,0,1.5.609,1.791,1.791,0,0,0,1.252-.426,2.593,2.593,0,0,0,.692-1.03l1.736,1.008a4.366,4.366,0,0,1-1.435,1.73A3.888,3.888,0,0,1,265.741,233.63Z"/>
      <path d="M270.9,223.691h3.68a4.858,4.858,0,0,1,1.762.307,3.55,3.55,0,0,1,1.358.917,4.187,4.187,0,0,1,.867,1.527,7.55,7.55,0,0,1,0,4.269,4.191,4.191,0,0,1-.867,1.526,3.539,3.539,0,0,1-1.358.917,4.858,4.858,0,0,1-1.762.308H270.9Zm3.68,7.881a2.052,2.052,0,0,0,1.5-.532,2.305,2.305,0,0,0,.545-1.708V227.82a2.307,2.307,0,0,0-.545-1.708,2.056,2.056,0,0,0-1.5-.532h-1.554v5.992Z"/>
      <path d="M283.956,233.462v-9.771h4.616a3.153,3.153,0,0,1,1.232.23,2.715,2.715,0,0,1,.93.638,2.8,2.8,0,0,1,.6.986,3.948,3.948,0,0,1,0,2.541,2.818,2.818,0,0,1-.6.981,2.738,2.738,0,0,1-.93.636,3.118,3.118,0,0,1-1.232.232h-2.49v3.527Zm2.126-5.376h2.239a1.075,1.075,0,0,0,.748-.245.914.914,0,0,0,.273-.721V226.5a.915.915,0,0,0-.273-.721,1.08,1.08,0,0,0-.748-.245h-2.239Z"/>
      <path d="M294.056,225.328a1.251,1.251,0,0,1-.916-.287,1,1,0,0,1-.287-.734V224a1,1,0,0,1,.287-.735,1.61,1.61,0,0,1,1.832,0,.992.992,0,0,1,.288.735v.309a.992.992,0,0,1-.288.734A1.25,1.25,0,0,1,294.056,225.328Zm-1.035.784h2.071v7.35h-2.071Z"/>
      <path d="M297.022,226.112h2.071v1.232h.07a1.724,1.724,0,0,1,.706-1.008,2.139,2.139,0,0,1,1.267-.392,2.447,2.447,0,0,1,2.112.98,6.093,6.093,0,0,1,0,5.72,2.441,2.441,0,0,1-2.112.986,2.219,2.219,0,0,1-.686-.1,2.09,2.09,0,0,1-.581-.294,1.937,1.937,0,0,1-.441-.449,1.847,1.847,0,0,1-.265-.552h-.07v4.031h-2.071Zm3.428,5.838a1.268,1.268,0,0,0,.972-.413,1.569,1.569,0,0,0,.384-1.113v-1.273a1.573,1.573,0,0,0-.384-1.114,1.271,1.271,0,0,0-.972-.413,1.586,1.586,0,0,0-.973.287.931.931,0,0,0-.384.791v2.17a.93.93,0,0,0,.384.791A1.58,1.58,0,0,0,300.45,231.95Z"/>
      <path d="M308.592,233.63a3.894,3.894,0,0,1-1.5-.272,3.1,3.1,0,0,1-1.113-.771,3.236,3.236,0,0,1-.685-1.211,5.627,5.627,0,0,1-.006-3.171,3.33,3.33,0,0,1,.664-1.211,2.958,2.958,0,0,1,1.084-.777,3.736,3.736,0,0,1,1.469-.273,3.623,3.623,0,0,1,1.56.308,2.971,2.971,0,0,1,1.063.826,3.314,3.314,0,0,1,.6,1.2,5.223,5.223,0,0,1,.19,1.42v.617h-4.715v.11a1.624,1.624,0,0,0,.391,1.145,1.6,1.6,0,0,0,1.232.424,1.936,1.936,0,0,0,1.049-.257,4.029,4.029,0,0,0,.756-.618l1.035,1.292a3.275,3.275,0,0,1-1.28.9A4.728,4.728,0,0,1,308.592,233.63Zm-.041-6.16a1.24,1.24,0,0,0-.987.413,1.625,1.625,0,0,0-.357,1.1v.111h2.574v-.126a1.8,1.8,0,0,0-.3-1.085A1.078,1.078,0,0,0,308.551,227.47Z"/>
      <path d="M315.447,233.462a1.8,1.8,0,0,1-2.057-2.016V223.1h2.071v8.75h.924v1.609Z"/>
      <path d="M318.665,225.328a1.25,1.25,0,0,1-.916-.287.991.991,0,0,1-.287-.734V224a.992.992,0,0,1,.287-.735,1.611,1.611,0,0,1,1.833,0,1,1,0,0,1,.286.735v.309a1,1,0,0,1-.286.734A1.254,1.254,0,0,1,318.665,225.328Zm-1.035.784h2.07v7.35h-2.07Z"/>
      <path d="M321.631,233.462v-7.35h2.07v1.247h.084a2.267,2.267,0,0,1,.685-1,2.355,2.355,0,0,1,3.071.336,3.481,3.481,0,0,1,.581,2.157v4.6h-2.07v-4.437a1.983,1.983,0,0,0-.224-1.058.881.881,0,0,0-.8-.343,1.9,1.9,0,0,0-.489.064,1.239,1.239,0,0,0-.427.2,1.042,1.042,0,0,0-.3.343.947.947,0,0,0-.112.468v4.76Z"/>
      <path d="M333.033,233.63a3.891,3.891,0,0,1-1.5-.272,3.081,3.081,0,0,1-1.112-.771,3.238,3.238,0,0,1-.686-1.211,5.663,5.663,0,0,1-.007-3.171,3.346,3.346,0,0,1,.665-1.211,2.95,2.95,0,0,1,1.084-.777,3.729,3.729,0,0,1,1.469-.273,3.637,3.637,0,0,1,1.561.308,2.967,2.967,0,0,1,1.062.826,3.332,3.332,0,0,1,.6,1.2,5.262,5.262,0,0,1,.189,1.42v.617h-4.715v.11a1.62,1.62,0,0,0,.391,1.145,1.6,1.6,0,0,0,1.232.424,1.938,1.938,0,0,0,1.049-.257,4.029,4.029,0,0,0,.756-.618l1.035,1.292a3.282,3.282,0,0,1-1.28.9A4.728,4.728,0,0,1,333.033,233.63Zm-.042-6.16a1.236,1.236,0,0,0-.986.413,1.625,1.625,0,0,0-.357,1.1v.111h2.574v-.126a1.806,1.806,0,0,0-.3-1.085A1.081,1.081,0,0,0,332.991,227.47Z"/>
    </g>
    <g style="isolation: isolate">
      <g style="isolation: isolate">
        <path d="M402.452,236.8v-1.694h1.259v-6.384h-1.259v-1.695H407.1v1.695h-1.258v6.384H407.1V236.8Z"/>
        <path d="M408.873,227.026h4.742a2.548,2.548,0,0,1,1.9.687,2.469,2.469,0,0,1,.678,1.819,2.738,2.738,0,0,1-.146.952,1.835,1.835,0,0,1-.392.645,1.509,1.509,0,0,1-.573.371,2.353,2.353,0,0,1-.707.133v.084a2.355,2.355,0,0,1,.734.126,2.107,2.107,0,0,1,.707.4,2.216,2.216,0,0,1,.539.707,2.364,2.364,0,0,1,.217,1.065,3.1,3.1,0,0,1-.189,1.085,2.759,2.759,0,0,1-.525.888,2.436,2.436,0,0,1-.8.6,2.329,2.329,0,0,1-1.007.217h-5.176Zm2.127,4h2.112a.824.824,0,0,0,.9-.9v-.42a.827.827,0,0,0-.9-.9H411Zm0,3.977h2.447a.93.93,0,0,0,.665-.231.854.854,0,0,0,.245-.651v-.476a.85.85,0,0,0-.245-.651.93.93,0,0,0-.665-.231H411Z"/>
        <path d="M425.508,230.387h-.042l-.714,1.428-1.9,3.458-1.861-3.445-.741-1.539h-.042v6.51h-2v-9.773h2.252l2.392,4.579h.028l2.365-4.579h2.266V236.8h-2Z"/>
      </g>
      <g style="isolation: isolate">
        <path d="M401.15,253.767a4.833,4.833,0,0,1-1.79-.316,3.548,3.548,0,0,1-1.357-.937,4.316,4.316,0,0,1-.867-1.555,6.918,6.918,0,0,1-.308-2.177,7.133,7.133,0,0,1,.308-2.19,4.568,4.568,0,0,1,.867-1.61,3.626,3.626,0,0,1,1.357-.988,4.584,4.584,0,0,1,1.79-.336,4.145,4.145,0,0,1,2.238.553,3.826,3.826,0,0,1,1.415,1.743l-1.834.952a2.185,2.185,0,0,0-.608-.987,1.758,1.758,0,0,0-1.211-.37,1.958,1.958,0,0,0-1.5.608,2.515,2.515,0,0,0-.566,1.772V249.5a2.515,2.515,0,0,0,.566,1.772,1.958,1.958,0,0,0,1.5.608,1.782,1.782,0,0,0,1.252-.427,2.578,2.578,0,0,0,.693-1.029l1.735,1.009a4.341,4.341,0,0,1-1.434,1.728A3.879,3.879,0,0,1,401.15,253.767Z"/>
        <path d="M408.258,253.6a1.8,1.8,0,0,1-2.057-2.017v-8.344h2.07v8.75h.924V253.6Z"/>
        <path d="M413.42,253.767a3.721,3.721,0,0,1-1.449-.267,2.887,2.887,0,0,1-1.077-.769,3.5,3.5,0,0,1-.677-1.218,5.452,5.452,0,0,1,0-3.193,3.436,3.436,0,0,1,.677-1.211,2.927,2.927,0,0,1,1.077-.762,4.06,4.06,0,0,1,2.9,0,2.922,2.922,0,0,1,1.078.762,3.453,3.453,0,0,1,.678,1.211,5.474,5.474,0,0,1,0,3.193,3.522,3.522,0,0,1-.678,1.218,2.882,2.882,0,0,1-1.078.769A3.707,3.707,0,0,1,413.42,253.767Zm0-1.639a1.206,1.206,0,0,0,.951-.378,1.567,1.567,0,0,0,.336-1.077v-1.5a1.57,1.57,0,0,0-.336-1.078,1.385,1.385,0,0,0-1.9,0,1.565,1.565,0,0,0-.336,1.078v1.5a1.562,1.562,0,0,0,.336,1.077A1.2,1.2,0,0,0,413.42,252.128Z"/>
        <path d="M422.668,252.366H422.6a2.6,2.6,0,0,1-.258.533,1.8,1.8,0,0,1-.413.448,1.919,1.919,0,0,1-.594.307,2.537,2.537,0,0,1-.791.113,2.037,2.037,0,0,1-1.714-.749,3.442,3.442,0,0,1-.581-2.15v-4.62h2.071v4.439a1.9,1.9,0,0,0,.237,1.036.9.9,0,0,0,.812.363,1.666,1.666,0,0,0,.476-.069,1.372,1.372,0,0,0,.419-.2,1.045,1.045,0,0,0,.294-.33.9.9,0,0,0,.113-.461v-4.775h2.07V253.6h-2.07Z"/>
        <path d="M431.174,252.366H431.1a1.819,1.819,0,0,1-.265.553,1.9,1.9,0,0,1-.442.448,2,2,0,0,1-.588.294,2.178,2.178,0,0,1-.677.106,2.44,2.44,0,0,1-2.114-.988,6.089,6.089,0,0,1,0-5.718,2.448,2.448,0,0,1,2.114-.981,2.127,2.127,0,0,1,1.265.393,1.716,1.716,0,0,1,.707,1.008h.071v-4.243h2.07V253.6h-2.07Zm-1.358-.28a1.588,1.588,0,0,0,.973-.286.933.933,0,0,0,.385-.791v-2.17a.932.932,0,0,0-.385-.791,1.588,1.588,0,0,0-.973-.287,1.27,1.27,0,0,0-.972.413,1.566,1.566,0,0,0-.385,1.112v1.275a1.571,1.571,0,0,0,.385,1.113A1.269,1.269,0,0,0,429.816,252.086Z"/>
        <path d="M391.49,270.567a3.84,3.84,0,0,1-3.092-1.317l1.218-1.231a3.162,3.162,0,0,0,.867.685,2.27,2.27,0,0,0,1.077.252,1.423,1.423,0,0,0,.854-.188.621.621,0,0,0,.238-.512q0-.517-.742-.615l-.8-.1q-2.477-.307-2.477-2.267a2.293,2.293,0,0,1,.2-.974,2.157,2.157,0,0,1,.573-.756,2.661,2.661,0,0,1,.895-.489,3.721,3.721,0,0,1,1.182-.176,5.985,5.985,0,0,1,1.015.077,3.519,3.519,0,0,1,.784.225,3.006,3.006,0,0,1,.629.363,6.882,6.882,0,0,1,.566.483l-1.189,1.218a2.711,2.711,0,0,0-.79-.553,2.143,2.143,0,0,0-.9-.2,1.289,1.289,0,0,0-.755.168.533.533,0,0,0-.224.449.619.619,0,0,0,.161.455,1.122,1.122,0,0,0,.608.23l.827.112q2.42.323,2.419,2.212a2.156,2.156,0,0,1-.224.981,2.3,2.3,0,0,1-.636.776,3.007,3.007,0,0,1-.993.511A4.3,4.3,0,0,1,391.49,270.567Z"/>
        <path d="M399.115,270.567a3.853,3.853,0,0,1-1.5-.274,3.076,3.076,0,0,1-1.112-.769,3.254,3.254,0,0,1-.686-1.211,5.663,5.663,0,0,1-.007-3.171,3.338,3.338,0,0,1,.665-1.211,2.93,2.93,0,0,1,1.084-.778,3.747,3.747,0,0,1,1.469-.273,3.637,3.637,0,0,1,1.561.309,2.934,2.934,0,0,1,1.062.826,3.323,3.323,0,0,1,.6,1.2,5.28,5.28,0,0,1,.189,1.421v.616H397.73v.111a1.428,1.428,0,0,0,1.623,1.569,1.929,1.929,0,0,0,1.049-.257,4.144,4.144,0,0,0,.756-.617l1.035,1.291a3.27,3.27,0,0,1-1.28.9A4.705,4.705,0,0,1,399.115,270.567Zm-.042-6.161a1.233,1.233,0,0,0-.986.413,1.624,1.624,0,0,0-.357,1.1v.112H400.3V265.9a1.806,1.806,0,0,0-.3-1.085A1.078,1.078,0,0,0,399.073,264.406Z"/>
        <path d="M403.914,270.4v-7.351h2.07v1.6h.07a2.328,2.328,0,0,1,.2-.6,1.858,1.858,0,0,1,.371-.511,1.725,1.725,0,0,1,.553-.356,1.958,1.958,0,0,1,.755-.134h.364v1.933h-.518a2.952,2.952,0,0,0-1.349.237.911.911,0,0,0-.442.883v4.3Z"/>
        <path d="M411.23,270.4l-2.406-7.351h2.043l.908,2.969.686,2.659h.113l.686-2.659.88-2.969H416.1l-2.406,7.351Z"/>
        <path d="M418.225,262.265a1.256,1.256,0,0,1-.916-.287,1,1,0,0,1-.287-.736v-.307a1,1,0,0,1,.287-.736,1.607,1.607,0,0,1,1.833,0,1,1,0,0,1,.286.736v.307a1,1,0,0,1-.286.736A1.257,1.257,0,0,1,418.225,262.265Zm-1.035.783h2.071V270.4H417.19Z"/>
        <path d="M424.157,270.567a3.715,3.715,0,0,1-1.469-.274,2.927,2.927,0,0,1-1.077-.769,3.334,3.334,0,0,1-.658-1.211,5.341,5.341,0,0,1-.224-1.6,5.263,5.263,0,0,1,.224-1.589,3.41,3.41,0,0,1,.658-1.211,2.806,2.806,0,0,1,1.077-.769,3.806,3.806,0,0,1,1.469-.267,3.274,3.274,0,0,1,1.868.5,2.764,2.764,0,0,1,1.07,1.414l-1.679.728a1.4,1.4,0,0,0-.4-.713,1.183,1.183,0,0,0-.854-.294,1.13,1.13,0,0,0-.951.413,1.757,1.757,0,0,0-.321,1.112v1.372a1.734,1.734,0,0,0,.321,1.107,1.142,1.142,0,0,0,.951.4,1.266,1.266,0,0,0,.889-.3,1.76,1.76,0,0,0,.482-.791l1.608.7a2.858,2.858,0,0,1-1.125,1.54A3.365,3.365,0,0,1,424.157,270.567Z"/>
        <path d="M431.418,270.567a3.848,3.848,0,0,1-1.5-.274,3.093,3.093,0,0,1-1.114-.769,3.266,3.266,0,0,1-.685-1.211,5.627,5.627,0,0,1-.006-3.171,3.321,3.321,0,0,1,.664-1.211,2.938,2.938,0,0,1,1.084-.778,3.754,3.754,0,0,1,1.469-.273,3.623,3.623,0,0,1,1.56.309,2.938,2.938,0,0,1,1.063.826,3.305,3.305,0,0,1,.6,1.2,5.241,5.241,0,0,1,.19,1.421v.616h-4.715v.111a1.621,1.621,0,0,0,.392,1.146,1.6,1.6,0,0,0,1.231.423,1.927,1.927,0,0,0,1.049-.257,4.144,4.144,0,0,0,.756-.617l1.035,1.291a3.266,3.266,0,0,1-1.279.9A4.714,4.714,0,0,1,431.418,270.567Zm-.041-6.161a1.237,1.237,0,0,0-.987.413,1.624,1.624,0,0,0-.357,1.1v.112h2.574V265.9a1.792,1.792,0,0,0-.3-1.085A1.074,1.074,0,0,0,431.377,264.406Z"/>
        <path d="M438.707,270.567a3.836,3.836,0,0,1-3.092-1.317l1.217-1.231a3.192,3.192,0,0,0,.867.685,2.268,2.268,0,0,0,1.078.252,1.427,1.427,0,0,0,.854-.188.621.621,0,0,0,.237-.512q0-.517-.741-.615l-.8-.1q-2.477-.307-2.476-2.267a2.307,2.307,0,0,1,.2-.974,2.2,2.2,0,0,1,.574-.756,2.675,2.675,0,0,1,.9-.489,3.712,3.712,0,0,1,1.182-.176,5.944,5.944,0,0,1,1.013.077,3.512,3.512,0,0,1,.785.225,3.013,3.013,0,0,1,.63.363,7.42,7.42,0,0,1,.566.483l-1.19,1.218a2.7,2.7,0,0,0-.791-.553,2.129,2.129,0,0,0-.9-.2,1.293,1.293,0,0,0-.755.168.535.535,0,0,0-.223.449.615.615,0,0,0,.16.455,1.126,1.126,0,0,0,.609.23l.825.112q2.421.323,2.421,2.212a2.169,2.169,0,0,1-.224.981,2.3,2.3,0,0,1-.637.776,3.007,3.007,0,0,1-.993.511A4.3,4.3,0,0,1,438.707,270.567Z"/>
      </g>
    </g>
    <g style="isolation: isolate">
      <g style="isolation: isolate">
        <path d="M263.3,345.344h3.679a4.863,4.863,0,0,1,1.763.308,3.565,3.565,0,0,1,1.357.917,4.191,4.191,0,0,1,.867,1.526,7.554,7.554,0,0,1,0,4.27,4.183,4.183,0,0,1-.867,1.526,3.554,3.554,0,0,1-1.357.917,4.842,4.842,0,0,1-1.763.308H263.3Zm3.679,7.882a2.048,2.048,0,0,0,1.5-.532,2.3,2.3,0,0,0,.547-1.708v-1.512a2.3,2.3,0,0,0-.547-1.708,2.048,2.048,0,0,0-1.5-.532h-1.552v5.992Z" fill="#161616"/>
        <path d="M276,355.284a3.872,3.872,0,0,1-1.5-.273,3.091,3.091,0,0,1-1.113-.77,3.258,3.258,0,0,1-.685-1.211,5.639,5.639,0,0,1-.007-3.171,3.319,3.319,0,0,1,.665-1.21,2.922,2.922,0,0,1,1.084-.778,3.747,3.747,0,0,1,1.469-.273,3.629,3.629,0,0,1,1.56.308,2.94,2.94,0,0,1,1.063.827,3.321,3.321,0,0,1,.6,1.2,5.281,5.281,0,0,1,.19,1.421v.616h-4.715v.111a1.428,1.428,0,0,0,1.623,1.569,1.932,1.932,0,0,0,1.049-.257,4.213,4.213,0,0,0,.756-.617l1.035,1.291a3.28,3.28,0,0,1-1.28.9A4.709,4.709,0,0,1,276,355.284Zm-.042-6.16a1.237,1.237,0,0,0-.987.413,1.628,1.628,0,0,0-.356,1.1v.112h2.574v-.126a1.8,1.8,0,0,0-.3-1.085A1.076,1.076,0,0,0,275.956,349.124Z" fill="#161616"/>
        <path d="M282.223,355.116l-2.406-7.35h2.042l.91,2.968.686,2.66h.111l.686-2.66.882-2.968h1.958l-2.407,7.35Z" fill="#161616"/>
        <path d="M292.213,355.284a4.658,4.658,0,0,1-1.763-.322,3.545,3.545,0,0,1-1.357-.959,4.437,4.437,0,0,1-.868-1.582,7.972,7.972,0,0,1,0-4.382,4.437,4.437,0,0,1,.868-1.582,3.545,3.545,0,0,1,1.357-.959,4.985,4.985,0,0,1,3.525,0,3.538,3.538,0,0,1,1.357.959,4.468,4.468,0,0,1,.868,1.582,7.947,7.947,0,0,1,0,4.382,4.468,4.468,0,0,1-.868,1.582,3.538,3.538,0,0,1-1.357.959A4.66,4.66,0,0,1,292.213,355.284Zm0-1.89a1.874,1.874,0,0,0,1.5-.63,2.7,2.7,0,0,0,.539-1.806V349.5a2.7,2.7,0,0,0-.539-1.806,2.113,2.113,0,0,0-3.008,0,2.7,2.7,0,0,0-.539,1.806v1.456a2.7,2.7,0,0,0,.539,1.806A1.871,1.871,0,0,0,292.213,353.394Z" fill="#161616"/>
        <path d="M298.172,347.766h2.07V349h.07a1.724,1.724,0,0,1,.707-1.008,2.134,2.134,0,0,1,1.266-.392,2.448,2.448,0,0,1,2.113.98,6.091,6.091,0,0,1,0,5.719,2.44,2.44,0,0,1-2.113.987,2.2,2.2,0,0,1-.686-.105,2.057,2.057,0,0,1-.58-.294,1.913,1.913,0,0,1-.441-.448,1.856,1.856,0,0,1-.266-.553h-.07v4.032h-2.07ZM301.6,353.6a1.272,1.272,0,0,0,.973-.412,1.573,1.573,0,0,0,.385-1.114V350.8a1.566,1.566,0,0,0-.385-1.112,1.271,1.271,0,0,0-.973-.414,1.581,1.581,0,0,0-.972.288.932.932,0,0,0-.385.791v2.169a.936.936,0,0,0,.385.792A1.587,1.587,0,0,0,301.6,353.6Z" fill="#161616"/>
        <path d="M309.168,355.284a3.835,3.835,0,0,1-3.092-1.316l1.218-1.232a3.132,3.132,0,0,0,.867.686,2.267,2.267,0,0,0,1.077.252,1.424,1.424,0,0,0,.854-.189.62.62,0,0,0,.238-.511q0-.517-.742-.615l-.8-.1q-2.478-.308-2.477-2.268a2.306,2.306,0,0,1,.2-.973,2.172,2.172,0,0,1,.574-.756,2.651,2.651,0,0,1,.895-.489,3.688,3.688,0,0,1,1.182-.176,5.973,5.973,0,0,1,1.014.077,3.528,3.528,0,0,1,.785.225,2.931,2.931,0,0,1,.628.363,6.523,6.523,0,0,1,.567.483l-1.19,1.218a2.7,2.7,0,0,0-.79-.553,2.139,2.139,0,0,0-.9-.2,1.289,1.289,0,0,0-.755.168.531.531,0,0,0-.224.448.612.612,0,0,0,.161.455,1.11,1.11,0,0,0,.608.231l.826.112q2.421.322,2.42,2.212a2.156,2.156,0,0,1-.224.981,2.323,2.323,0,0,1-.636.776,3.027,3.027,0,0,1-.993.511A4.3,4.3,0,0,1,309.168,355.284Z" fill="#161616"/>
      </g>
      <g style="isolation: isolate">
        <path d="M262.918,371.916v-1.694h1.258v-6.384h-1.258v-1.694h4.644v1.694H266.3v6.384h1.259v1.694Z" fill="#161616"/>
        <path d="M269.226,371.916v-7.35H271.3v1.246h.084a2.25,2.25,0,0,1,.685-.994,2.354,2.354,0,0,1,3.07.335,3.478,3.478,0,0,1,.582,2.157v4.606h-2.071v-4.438a1.982,1.982,0,0,0-.223-1.057.883.883,0,0,0-.8-.343,1.914,1.914,0,0,0-.49.063,1.252,1.252,0,0,0-.426.2,1.062,1.062,0,0,0-.3.343.951.951,0,0,0-.112.469v4.76Z" fill="#161616"/>
        <path d="M280.054,372.084a3.839,3.839,0,0,1-3.091-1.316l1.217-1.232a3.155,3.155,0,0,0,.868.686,2.264,2.264,0,0,0,1.077.252,1.418,1.418,0,0,0,.853-.189.622.622,0,0,0,.239-.511q0-.518-.743-.616l-.8-.1q-2.478-.307-2.477-2.268a2.3,2.3,0,0,1,.2-.974,2.174,2.174,0,0,1,.573-.755,2.675,2.675,0,0,1,.9-.49,3.711,3.711,0,0,1,1.181-.175,5.985,5.985,0,0,1,1.015.077,3.5,3.5,0,0,1,.784.224,2.959,2.959,0,0,1,.629.364,6.523,6.523,0,0,1,.567.483l-1.19,1.218a2.679,2.679,0,0,0-.79-.553,2.127,2.127,0,0,0-.9-.2,1.285,1.285,0,0,0-.755.168.53.53,0,0,0-.225.448.618.618,0,0,0,.161.455,1.118,1.118,0,0,0,.609.231l.826.112q2.419.322,2.42,2.212a2.14,2.14,0,0,1-.225.98,2.3,2.3,0,0,1-.635.777,3.04,3.04,0,0,1-.994.51A4.261,4.261,0,0,1,280.054,372.084Z" fill="#161616"/>
        <path d="M285.65,363.782a1.253,1.253,0,0,1-.916-.287,1,1,0,0,1-.287-.735v-.308a1,1,0,0,1,.287-.735,1.607,1.607,0,0,1,1.833,0,1,1,0,0,1,.286.735v.308a1,1,0,0,1-.286.735A1.252,1.252,0,0,1,285.65,363.782Zm-1.035.784h2.07v7.35h-2.07Z" fill="#161616"/>
        <path d="M295.416,372.448a2.494,2.494,0,0,1-.2,1.036,1.844,1.844,0,0,1-.664.763,3.436,3.436,0,0,1-1.225.476,11.052,11.052,0,0,1-3.5.042,3.784,3.784,0,0,1-1.077-.336,1.475,1.475,0,0,1-.6-.532,1.376,1.376,0,0,1-.189-.721,1.275,1.275,0,0,1,.364-.966,1.734,1.734,0,0,1,1.007-.434v-.154a1.224,1.224,0,0,1-.8-.456,1.353,1.353,0,0,1-.266-.834,1.044,1.044,0,0,1,.119-.512,1.332,1.332,0,0,1,.308-.377,1.507,1.507,0,0,1,.441-.26,3.456,3.456,0,0,1,.5-.155v-.055a2.176,2.176,0,0,1-.994-.847,2.4,2.4,0,0,1-.321-1.252,2.272,2.272,0,0,1,.776-1.8,3.532,3.532,0,0,1,2.371-.678,4.806,4.806,0,0,1,1.247.14v-.28a1.094,1.094,0,0,1,.286-.847,1.179,1.179,0,0,1,.819-.26h1.16v1.541h-1.623v.084a2.1,2.1,0,0,1,.951.847,2.487,2.487,0,0,1,.309,1.253,2.216,2.216,0,0,1-.777,1.771,3.58,3.58,0,0,1-2.372.665,5.116,5.116,0,0,1-1.3-.154.664.664,0,0,0-.323.588.482.482,0,0,0,.2.413,1.184,1.184,0,0,0,.678.147h2.127a2.819,2.819,0,0,1,1.951.56A2.041,2.041,0,0,1,295.416,372.448Zm-1.945.28a.554.554,0,0,0-.252-.491,1.681,1.681,0,0,0-.881-.168H289.82a.86.86,0,0,0-.2.316,1.03,1.03,0,0,0-.063.343.632.632,0,0,0,.35.595,2.685,2.685,0,0,0,1.19.189h.838a2.694,2.694,0,0,0,1.19-.189A.632.632,0,0,0,293.471,372.728Zm-2-4.788a1.381,1.381,0,0,0,.917-.257.925.925,0,0,0,.3-.744v-.167a.926.926,0,0,0-.3-.745,1.763,1.763,0,0,0-1.833,0,.925.925,0,0,0-.3.745v.167a.924.924,0,0,0,.3.744A1.383,1.383,0,0,0,291.47,367.94Z" fill="#161616"/>
        <path d="M296.34,361.556h2.07v4.256h.084a2.25,2.25,0,0,1,.685-.994,2.356,2.356,0,0,1,3.071.335,3.491,3.491,0,0,1,.58,2.157v4.606h-2.07v-4.438a1.982,1.982,0,0,0-.223-1.057.885.885,0,0,0-.8-.343,1.893,1.893,0,0,0-.488.063,1.262,1.262,0,0,0-.428.2,1.074,1.074,0,0,0-.3.343.962.962,0,0,0-.111.469v4.76h-2.07Z" fill="#161616"/>
        <path d="M307.252,371.916a2.229,2.229,0,0,1-1.631-.546,2.149,2.149,0,0,1-.553-1.6v-3.6h-1.035v-1.61h.518a.683.683,0,0,0,.574-.2.945.945,0,0,0,.154-.58v-1.2h1.86v1.988h1.455v1.61h-1.455v4.13h1.343v1.61Z" fill="#161616"/>
        <path d="M312.525,372.084a3.843,3.843,0,0,1-3.092-1.316l1.218-1.232a3.166,3.166,0,0,0,.867.686,2.27,2.27,0,0,0,1.077.252,1.42,1.42,0,0,0,.854-.189.621.621,0,0,0,.238-.511q0-.518-.742-.616l-.8-.1q-2.476-.307-2.476-2.268a2.3,2.3,0,0,1,.2-.974,2.174,2.174,0,0,1,.573-.755,2.675,2.675,0,0,1,.9-.49,3.711,3.711,0,0,1,1.181-.175,5.985,5.985,0,0,1,1.015.077,3.519,3.519,0,0,1,.784.224,2.984,2.984,0,0,1,.629.364,6.513,6.513,0,0,1,.566.483l-1.189,1.218a2.692,2.692,0,0,0-.79-.553,2.128,2.128,0,0,0-.9-.2,1.283,1.283,0,0,0-.754.168.53.53,0,0,0-.225.448.618.618,0,0,0,.161.455,1.118,1.118,0,0,0,.609.231l.826.112q2.419.322,2.42,2.212a2.152,2.152,0,0,1-.225.98,2.293,2.293,0,0,1-.636.777,3.024,3.024,0,0,1-.993.51A4.266,4.266,0,0,1,312.525,372.084Z" fill="#161616"/>
      </g>
    </g>
    <line id="fffdefa2-c38e-4af4-bbff-40f3e6b1ba02" data-name="Dashed lin1" x1="289.279" y1="266.82" x2="289.279" y2="235.82" fill="none" stroke="#969696" stroke-miterlimit="10" stroke-dasharray="4 4"/>
    <line id="b673b686-7235-497d-a40f-cc6504d1a52b" data-name="Dashed lin1" x1="163.944" y1="149.32" x2="163.944" y2="101.32" fill="none" stroke="#969696" stroke-miterlimit="10" stroke-dasharray="4 4"/>
    <g id="bf41270c-72da-4d4c-a975-51d99b0bab38" data-name="Inventory">
      <circle cx="41.274" cy="182.107" r="32" fill="#fff" stroke="#000" stroke-miterlimit="10"/>
      <g id="b6704911-d1c9-45be-bf43-481cc0dc4d8b" data-name="Inv_icon">
        <g clip-path="url(#ff9f59c8-cd1a-45a5-915f-145a6f3643f9)">
          <g>
            <g clip-path="url(#ff9f59c8-cd1a-45a5-915f-145a6f3643f9)">
              <path d="M32.966,184.535a8.048,8.048,0,0,1-.172-.993,1.138,1.138,0,0,1-.02-.182v-.021a8.406,8.406,0,0,1,.182-2.6c0-.01.01-.01.01-.031.02-.05.02-.111.041-.162a.292.292,0,0,0,.02-.091c.01-.03.01-.061.02-.091.02-.051.03-.111.051-.162,0-.01.01-.01.01-.03a8.014,8.014,0,0,1,1.255-2.493.123.123,0,0,1,.031-.04c.05-.071.1-.132.151-.2a.8.8,0,0,1,.081-.1c.021-.03.051-.051.071-.081a8.045,8.045,0,0,1,.689-.74,11.36,11.36,0,0,1,.192-10.707,17.861,17.861,0,0,0-3.219,1.428.032.032,0,0,1-.021.01c-.091.051-.182.112-.273.162-.02.01-.051.031-.071.041a.01.01,0,0,0-.01.01c-.02.01-.051.02-.061.04a.432.432,0,0,0-.081.051c-.06.041-.131.081-.192.122s-.1.071-.152.1a1.752,1.752,0,0,0-.182.122c-.051.04-.1.07-.152.111s-.111.081-.172.122-.1.07-.152.111a1.8,1.8,0,0,0-.172.132c-.051.04-.1.071-.152.111a1.181,1.181,0,0,0-.172.142,1.6,1.6,0,0,1-.142.111l-.3.243c-.051.041-.092.082-.132.112s-.111.1-.172.152a.846.846,0,0,0-.142.132c-.05.04-.1.091-.152.141s-.1.092-.141.142-.1.091-.152.142-.1.091-.152.142a14131333398412.762,14131333398412.762,0,0,0-.284.284,1.874,1.874,0,0,0-.141.141,1.728,1.728,0,0,1-.142.142,1.84,1.84,0,0,0-.132.142c-.05.051-.091.1-.141.152s-.1.122-.152.172c-.081.091-.162.183-.233.274a.746.746,0,0,0-.112.142c-.05.05-.091.111-.141.172a1.288,1.288,0,0,0-.112.142,1.068,1.068,0,0,0-.131.172,1.6,1.6,0,0,0-.112.142c-.04.06-.081.111-.131.182a1.6,1.6,0,0,0-.112.142.475.475,0,0,0-.06.091c-.041.051-.071.1-.112.152s-.071.1-.111.152a1.639,1.639,0,0,1-.152.213c-.03.04-.05.081-.081.121-.01.01-.02.041-.03.051-.041.071-.091.142-.142.213-.02.04-.051.081-.071.121-.081.122-.152.253-.223.375s-.141.253-.2.375c-.02.04-.051.081-.071.121-.051.081-.091.173-.142.254a.925.925,0,0,1-.081.141,1.756,1.756,0,0,0-.111.244.531.531,0,0,1-.081.151c-.04.082-.071.152-.111.233-.021.051-.051.1-.071.152-.041.081-.071.163-.112.233-.02.051-.05.1-.06.142-.041.091-.071.183-.112.274-.01.04-.03.081-.04.121l-.152.4a.04.04,0,0,0-.01.031c-.051.121-.081.243-.122.365-.02.05-.03.091-.05.131-.031.081-.051.172-.081.264-.02.05-.031.111-.051.152l-.061.212a.063.063,0,0,0-.01.041c-.01.03-.02.061-.03.1s-.01.061-.02.091c-.021.081-.041.152-.061.233,0,.01-.01.021-.01.031a.362.362,0,0,0-.02.1l-.152.638v.01a11.474,11.474,0,0,0,9.192,5.471" fill="#243238"/>
            </g>
            <g clip-path="url(#ff9f59c8-cd1a-45a5-915f-145a6f3643f9)">
              <path d="M38.884,190.477a8.706,8.706,0,0,1-.93-.34c-.05-.02-.11-.05-.17-.08a.035.035,0,0,1-.02-.01,8.04,8.04,0,0,1-2.138-1.44l-.02-.02c-.04-.04-.08-.07-.12-.11a.462.462,0,0,0-.07-.07l-.07-.07-.11-.11c-.01-.01-.02-.01-.02-.02a8.3,8.3,0,0,1-1.519-2.3.076.076,0,0,1-.02-.04c-.03-.08-.06-.15-.09-.23-.02-.04-.03-.07-.05-.11a.76.76,0,0,0-.04-.11c-.11-.32-.21-.64-.29-.96a11.241,11.241,0,0,1-9.074-5.45,16.723,16.723,0,0,0-.359,3.46v.6c0,.07.01.15.01.23,0,.06.01.12.01.18s.01.15.02.21a1.087,1.087,0,0,1,.01.18c.01.07.01.14.02.21a1.087,1.087,0,0,1,.01.18,1.646,1.646,0,0,1,.02.21c.01.06.01.12.02.18s.02.15.03.22c.01.05.01.11.02.17.02.12.04.25.06.37.01.05.02.11.03.17.02.08.02.14.04.22a1.166,1.166,0,0,0,.039.19c.02.07.02.13.04.2s.03.13.05.19.03.13.05.19.03.13.05.2.03.12.05.18a1.462,1.462,0,0,0,.05.2,1.209,1.209,0,0,0,.05.18c.01.07.04.13.05.2a1.209,1.209,0,0,1,.05.18c.02.07.04.13.06.2a1.293,1.293,0,0,0,.07.21c.04.12.08.23.11.34.02.05.04.11.06.17a1.192,1.192,0,0,0,.08.2.851.851,0,0,1,.06.17,1.192,1.192,0,0,0,.08.2c.02.05.05.11.07.16.03.07.05.14.08.2s.05.11.07.16c.01.03.03.07.04.1.02.05.05.11.08.17s.05.11.08.17a1.627,1.627,0,0,1,.11.23c.019.04.049.09.069.14.01.01.01.04.03.05a2.256,2.256,0,0,1,.11.22.826.826,0,0,0,.07.13c.07.13.14.25.21.38s.14.24.22.36a.444.444,0,0,0,.08.11l.15.24c.03.04.06.09.09.14.05.08.1.14.15.22.03.04.06.09.1.14.05.07.1.14.14.21a1.7,1.7,0,0,1,.1.14l.149.21c.03.04.06.08.1.13.06.08.11.15.17.22.03.04.05.07.08.11.08.11.18.21.26.32a.077.077,0,0,1,.02.03c.08.1.16.19.24.28.03.04.06.07.09.11.06.07.12.14.18.2l.11.11c.05.05.1.11.149.15l.03.03a464410017790.319,464410017790.319,0,0,1,.14.14l.17.17c.01.01.02.01.02.02.02.02.05.04.08.07.15.15.31.29.48.44h.01a11.265,11.265,0,0,0,9.284-5.13" fill="#3b4b54"/>
            </g>
            <g clip-path="url(#ff9f59c8-cd1a-45a5-915f-145a6f3643f9)">
              <path d="M46.705,188.177a7.571,7.571,0,0,1-.759.63c-.05.04-.1.07-.15.11a.031.031,0,0,1-.02.01,8.318,8.318,0,0,1-2.318,1.13c-.01,0-.02.01-.03.01-.05.01-.11.03-.16.04-.03.01-.06.01-.09.02s-.06.01-.09.02a.936.936,0,0,0-.16.04c-.01,0-.02.01-.03.01a8.234,8.234,0,0,1-2.748.16c-.01,0-.04,0-.05-.01l-.24-.03c-.04-.01-.08-.01-.12-.02a.425.425,0,0,0-.11-.02c-.33-.06-.649-.14-.969-.23a11.257,11.257,0,0,1-9.264,5.13,17.2,17.2,0,0,0,2.818,2.05l.02.02c.09.05.18.11.27.15a.251.251,0,0,1,.07.04c.01,0,.01.01.02.01.02.02.04.02.07.04s.05.03.08.04c.07.04.14.07.2.11a1.356,1.356,0,0,1,.159.09c.06.03.13.07.19.1s.11.05.17.08.13.06.19.09a1.3,1.3,0,0,1,.17.08,1.667,1.667,0,0,0,.2.08c.05.02.11.05.17.08a1.8,1.8,0,0,0,.21.08,1.1,1.1,0,0,1,.159.07c.11.04.24.09.35.14.05.02.11.04.16.06a1.8,1.8,0,0,1,.21.08l.18.06c.06.02.13.04.19.06s.13.04.19.06.12.04.189.06a1.332,1.332,0,0,0,.19.05c.06.01.12.04.18.05s.13.04.2.05a1.163,1.163,0,0,0,.18.04c.07.02.13.03.2.05s.12.03.18.04.13.03.2.05a1.689,1.689,0,0,1,.219.05c.11.02.24.05.35.07.06.01.11.02.18.03a1.552,1.552,0,0,1,.21.04,1.01,1.01,0,0,1,.17.03c.07.01.15.02.21.03s.11.01.17.02a1.648,1.648,0,0,0,.209.02.985.985,0,0,0,.17.02c.04,0,.08.01.11.01a1.087,1.087,0,0,0,.18.01c.06.01.12.01.19.02a2.175,2.175,0,0,0,.26.01c.05,0,.1.01.15.01h.06c.08,0,.17.01.25.01.04,0,.1.01.139.01.15,0,.29.01.43.01s.28,0,.42-.01a.66.66,0,0,0,.14-.01c.1,0,.19-.01.29-.01.05,0,.11-.01.16-.01a2.234,2.234,0,0,1,.259-.01c.05-.01.11-.01.17-.02.08-.01.17-.01.25-.02.05-.01.11-.01.17-.02l.24-.03c.05-.01.1-.01.14-.02.1-.02.21-.03.31-.04a.6.6,0,0,1,.129-.01c.14-.02.27-.04.41-.07.02,0,.02-.01.04-.01.12-.02.24-.05.37-.07l.14-.03a2.614,2.614,0,0,0,.27-.06.936.936,0,0,0,.16-.04c.069-.02.139-.03.209-.05.01,0,.03-.01.04-.01.03-.01.07-.01.1-.02l.09-.02.23-.06c.01,0,.02-.01.03-.01l.1-.03c.2-.06.41-.12.62-.19l.01-.01a11.19,11.19,0,0,0,.189-10.57" fill="#0883a5"/>
            </g>
            <g clip-path="url(#ff9f59c8-cd1a-45a5-915f-145a6f3643f9)">
              <path d="M48.592,180.536a8.144,8.144,0,0,1,.172.987,1.111,1.111,0,0,1,.01.182v.02a8.056,8.056,0,0,1-.182,2.589c0,.01-.01.02-.01.03a.947.947,0,0,1-.04.161.3.3,0,0,0-.02.091c-.01.03-.01.06-.02.09a.958.958,0,0,0-.04.162c0,.01-.01.01-.01.03a8.087,8.087,0,0,1-1.249,2.478c-.01.01-.02.03-.03.04-.05.071-.1.131-.151.2a.646.646,0,0,1-.081.1c-.02.031-.05.051-.07.081a7.688,7.688,0,0,1-.685.735A11.327,11.327,0,0,1,46,199.162a18.5,18.5,0,0,0,3.2-1.42.031.031,0,0,1,.02-.01c.09-.05.181-.111.271-.161a.184.184,0,0,1,.071-.041.01.01,0,0,0,.01-.01c.02-.02.05-.02.06-.04a.805.805,0,0,0,.091-.05c.06-.041.131-.081.191-.121s.1-.071.151-.1l.181-.121c.051-.04.1-.07.152-.111s.11-.08.171-.12.1-.071.151-.111.11-.081.171-.131c.04-.041.1-.071.141-.111.06-.05.121-.091.181-.141a1.735,1.735,0,0,1,.141-.111l.3-.242a1.55,1.55,0,0,0,.131-.121c.05-.04.121-.1.171-.141a1.638,1.638,0,0,0,.141-.131c.05-.05.1-.09.151-.141a1.7,1.7,0,0,0,.141-.141c.04-.05.1-.09.151-.141s.1-.09.141-.141l.141-.141.151-.151a1.874,1.874,0,0,1,.141-.141.9.9,0,0,1,.141-.141c.04-.04.08-.091.13-.141s.091-.1.141-.151.1-.111.151-.171c.081-.091.161-.182.232-.272a.852.852,0,0,0,.111-.141,1.71,1.71,0,0,1,.141-.161,1.361,1.361,0,0,0,.11-.142,1.657,1.657,0,0,0,.131-.171,1.577,1.577,0,0,0,.111-.141c.04-.06.08-.111.131-.181.04-.051.07-.091.111-.141a.475.475,0,0,0,.06-.091c.04-.05.07-.1.111-.151s.07-.1.11-.151c.051-.071.091-.151.141-.212.031-.04.051-.08.081-.12a.207.207,0,0,1,.03-.051c.04-.07.091-.141.141-.211a.73.73,0,0,1,.081-.121c.08-.121.151-.252.221-.373s.141-.252.211-.373a.9.9,0,0,1,.071-.121c.05-.08.091-.171.141-.251a.51.51,0,0,1,.08-.142,1.658,1.658,0,0,0,.111-.241.518.518,0,0,1,.081-.151c.04-.071.07-.151.11-.232.021-.05.051-.1.071-.151.04-.081.07-.161.111-.242a.852.852,0,0,0,.06-.141c.04-.091.071-.181.111-.272.02-.04.03-.081.05-.121.05-.131.1-.262.141-.393.01-.01.01-.02.02-.03.04-.121.081-.232.121-.363.02-.04.03-.09.05-.131.031-.08.051-.181.081-.261.02-.051.03-.111.05-.152l.061-.211c.01-.01.01-.03.02-.051s.02-.06.03-.1.01-.061.02-.091c.02-.081.04-.151.06-.232,0-.01.011-.02.011-.03.01-.03.01-.07.02-.1l.151-.634v-.01a11.591,11.591,0,0,0-9.182-5.42" fill="#00aed1"/>
            </g>
            <g clip-path="url(#ff9f59c8-cd1a-45a5-915f-145a6f3643f9)">
              <path d="M43.664,174.707a8.77,8.77,0,0,1,.929.34c.05.02.11.05.17.08a.035.035,0,0,1,.02.01,8.307,8.307,0,0,1,2.139,1.44c.01.01.02.01.02.02.039.04.079.07.119.11a.462.462,0,0,0,.07.07l.07.07.11.11c.01.01.02.01.02.02a8.259,8.259,0,0,1,1.519,2.3c.01.02.02.03.02.05.03.08.06.15.09.23.02.04.03.08.05.12a.76.76,0,0,0,.04.11c.11.32.21.64.29.96a11.241,11.241,0,0,1,9.074,5.45,17.363,17.363,0,0,0,.36-3.46v-.6c0-.08-.01-.15-.01-.23,0-.06-.01-.12-.01-.18s-.01-.14-.02-.21-.01-.12-.02-.18a1.548,1.548,0,0,1-.01-.21c-.01-.06-.01-.12-.02-.18a1.646,1.646,0,0,1-.02-.21c-.01-.06-.01-.12-.02-.18s-.02-.15-.03-.22a.881.881,0,0,1-.02-.17c-.02-.12-.04-.25-.06-.37-.01-.05-.02-.11-.03-.17-.02-.08-.02-.15-.04-.22s-.02-.13-.04-.19-.02-.13-.04-.2a1.286,1.286,0,0,1-.04-.19c-.02-.06-.03-.13-.05-.19s-.03-.13-.05-.2a1.209,1.209,0,0,0-.05-.18c-.02-.07-.03-.13-.05-.2a1.209,1.209,0,0,0-.05-.18c-.01-.07-.04-.13-.05-.2s-.04-.12-.05-.18-.04-.13-.06-.2-.05-.14-.07-.21c-.04-.11-.08-.23-.11-.33-.02-.05-.04-.11-.06-.17a1.192,1.192,0,0,0-.08-.2.792.792,0,0,1-.059-.17,1.192,1.192,0,0,0-.08-.2c-.02-.05-.05-.11-.07-.16-.03-.07-.05-.14-.08-.2s-.05-.11-.07-.16c-.02-.03-.03-.07-.05-.1-.02-.05-.05-.11-.08-.17s-.05-.11-.08-.17a2.4,2.4,0,0,1-.11-.23c-.02-.04-.05-.09-.07-.14-.01-.01-.02-.04-.03-.05-.04-.08-.08-.15-.11-.22a.826.826,0,0,0-.07-.13c-.07-.13-.14-.25-.21-.38s-.14-.24-.22-.36a.444.444,0,0,0-.08-.11L56,173.2c-.03-.05-.06-.09-.09-.14-.05-.07-.1-.14-.15-.22-.03-.04-.06-.09-.1-.14-.05-.07-.1-.14-.14-.21-.03-.05-.07-.09-.1-.14l-.15-.21c-.03-.04-.06-.08-.1-.13-.06-.08-.11-.15-.17-.22-.03-.04-.05-.07-.08-.11-.08-.11-.18-.21-.26-.32a.077.077,0,0,1-.02-.03c-.08-.1-.159-.19-.239-.28-.03-.04-.06-.07-.09-.11-.06-.07-.12-.14-.18-.2l-.11-.11c-.05-.05-.1-.11-.15-.15l-.03-.03-.07-.07-.07-.07-.17-.17-.02-.02c-.02-.02-.05-.04-.08-.07-.15-.15-.31-.3-.479-.44h-.01a11.2,11.2,0,0,0-9.274,5.1" fill="#027c68"/>
            </g>
            <g clip-path="url(#ff9f59c8-cd1a-45a5-915f-145a6f3643f9)">
              <path d="M35.343,176.017a6.766,6.766,0,0,1,.759-.63c.05-.04.1-.07.15-.11.01-.01.02-.01.02-.02a8.324,8.324,0,0,1,2.319-1.13c.01,0,.02-.01.03-.01.05-.01.11-.03.16-.04.03-.01.06-.01.09-.02a.292.292,0,0,1,.09-.02c.05-.02.109-.02.159-.04.01,0,.02-.01.03-.01a8.24,8.24,0,0,1,2.749-.16.075.075,0,0,1,.05.01l.239.03c.04.01.08.01.12.02a.41.41,0,0,0,.11.01c.33.06.65.14.97.23A11.254,11.254,0,0,1,52.652,169a17.811,17.811,0,0,0-2.819-2.05.031.031,0,0,0-.02-.01c-.09-.05-.179-.11-.269-.15a.251.251,0,0,1-.07-.04.01.01,0,0,1-.01-.01c-.02-.02-.05-.02-.07-.04s-.05-.03-.08-.04c-.07-.04-.14-.07-.2-.11s-.11-.05-.16-.08-.13-.07-.19-.1-.11-.05-.17-.08-.13-.06-.19-.09-.11-.05-.17-.08a1.59,1.59,0,0,0-.2-.08c-.05-.02-.11-.04-.17-.07a1.8,1.8,0,0,0-.21-.08c-.05-.02-.11-.05-.16-.07-.11-.05-.24-.09-.35-.14-.05-.02-.11-.04-.16-.06a1.8,1.8,0,0,1-.21-.08l-.179-.06c-.06-.02-.13-.04-.19-.06s-.13-.04-.19-.06-.12-.04-.19-.06a1.332,1.332,0,0,0-.19-.05c-.06-.01-.12-.04-.18-.05a1.462,1.462,0,0,0-.2-.05,1.209,1.209,0,0,1-.18-.05c-.07-.01-.13-.03-.2-.04s-.12-.03-.18-.04-.13-.03-.2-.05a1.419,1.419,0,0,1-.22-.05c-.11-.02-.24-.04-.35-.07l-.17-.03a1.552,1.552,0,0,1-.21-.04,1.1,1.1,0,0,1-.179-.03l-.21-.03c-.06-.01-.11-.01-.17-.02s-.14-.01-.21-.02a1.028,1.028,0,0,0-.18-.01c-.04,0-.08-.01-.11-.01a1.087,1.087,0,0,0-.18-.01,1.148,1.148,0,0,0-.19-.01c-.08-.01-.17-.01-.259-.02-.05,0-.1-.01-.15-.01h-.06c-.08,0-.17-.01-.25-.01-.05,0-.1-.01-.14-.01-.14,0-.29-.01-.43-.01s-.28,0-.42.01a.656.656,0,0,0-.139.01c-.1,0-.19.01-.29.01-.05,0-.11.01-.16.01-.09.01-.17.01-.26.02a.97.97,0,0,1-.17.01c-.08.01-.17.01-.25.02a.915.915,0,0,1-.17.01l-.239.03c-.05.01-.1.01-.14.02-.1.02-.21.03-.31.04a.615.615,0,0,1-.13.01c-.14.02-.27.05-.41.07-.01,0-.02.01-.04.01-.12.02-.24.04-.369.07-.04.01-.09.02-.14.03-.09.01-.17.04-.27.06a.936.936,0,0,0-.16.04,1.6,1.6,0,0,0-.21.05c-.02,0-.03.01-.05.01s-.07.01-.1.02-.06.01-.09.02l-.23.06c-.01,0-.02.01-.03.01l-.1.03c-.209.06-.409.12-.619.19l-.01.01a11.223,11.223,0,0,0-.18,10.56" fill="#00b199"/>
            </g>
          </g>
        </g>
      </g>
    </g>
    <g id="f41ee8fd-34df-47e9-918d-6c0aafc6f749" data-name="Inventory">
      <circle cx="163.944" cy="182.107" r="32" fill="#fff" stroke="#000" stroke-miterlimit="10"/>
      <g id="ee6c1c14-c2eb-4e3c-b191-f337ae2e8c40" data-name="Inv_icon">
        <g clip-path="url(#b8d22e45-d0de-43cf-9c2d-d1e75d8c4f04)">
          <g>
            <g clip-path="url(#b8d22e45-d0de-43cf-9c2d-d1e75d8c4f04)">
              <path d="M155.636,184.535a8.048,8.048,0,0,1-.172-.993,1.138,1.138,0,0,1-.02-.182v-.021a8.375,8.375,0,0,1,.182-2.6c0-.01.01-.01.01-.031.02-.05.02-.111.04-.162a.293.293,0,0,0,.021-.091c.01-.03.01-.061.02-.091.02-.051.03-.111.05-.162,0-.01.011-.01.011-.03a8.014,8.014,0,0,1,1.255-2.493.138.138,0,0,1,.03-.04c.051-.071.1-.132.152-.2a.717.717,0,0,1,.081-.1c.02-.03.051-.051.071-.081a8.035,8.035,0,0,1,.688-.74,11.36,11.36,0,0,1,.193-10.707,17.9,17.9,0,0,0-3.22,1.428.031.031,0,0,1-.02.01c-.091.051-.182.112-.273.162-.02.01-.051.031-.071.041a.01.01,0,0,0-.01.01c-.02.01-.051.02-.061.04a.4.4,0,0,0-.081.051c-.061.041-.131.081-.192.122s-.1.071-.152.1a1.652,1.652,0,0,0-.182.122c-.051.04-.1.07-.152.111s-.112.081-.172.122-.1.07-.152.111a1.8,1.8,0,0,0-.172.132c-.051.04-.1.071-.152.111a1.13,1.13,0,0,0-.172.142,1.758,1.758,0,0,1-.142.111l-.3.243c-.05.041-.091.082-.131.112s-.112.1-.172.152a.809.809,0,0,0-.142.132,1.955,1.955,0,0,0-.152.141c-.04.051-.1.092-.142.142s-.1.091-.152.142-.1.091-.151.142a1.9,1.9,0,0,1-.142.142c-.041.05-.1.1-.142.142s-.091.091-.142.141a1.722,1.722,0,0,1-.141.142,1.84,1.84,0,0,0-.132.142c-.051.051-.091.1-.142.152s-.1.122-.152.172c-.08.091-.161.183-.232.274a.746.746,0,0,0-.112.142c-.05.05-.091.111-.141.172a1.288,1.288,0,0,0-.112.142,1.068,1.068,0,0,0-.131.172,1.6,1.6,0,0,0-.112.142c-.04.06-.081.111-.131.182a1.6,1.6,0,0,0-.112.142.475.475,0,0,0-.06.091c-.041.051-.071.1-.112.152s-.071.1-.111.152a1.639,1.639,0,0,1-.152.213c-.03.04-.051.081-.081.121-.01.01-.02.041-.03.051-.041.071-.092.142-.142.213-.02.04-.051.081-.071.121-.081.122-.152.253-.223.375s-.141.253-.2.375c-.02.04-.051.081-.071.121-.051.081-.091.173-.142.254a.925.925,0,0,1-.081.141,1.756,1.756,0,0,0-.111.244.558.558,0,0,1-.081.151c-.041.082-.071.152-.112.233-.02.051-.05.1-.07.152-.041.081-.071.163-.112.233-.02.051-.05.1-.06.142-.041.091-.071.183-.112.274-.01.04-.03.081-.04.121l-.152.4a.04.04,0,0,0-.01.031c-.051.121-.081.243-.122.365-.02.05-.03.091-.05.131-.031.081-.051.172-.081.264-.021.05-.031.111-.051.152l-.061.212a.063.063,0,0,0-.01.041c-.01.03-.02.061-.03.1s-.01.061-.021.091c-.02.081-.04.152-.06.233,0,.01-.01.021-.01.031a.331.331,0,0,0-.021.1l-.151.638v.01a11.473,11.473,0,0,0,9.192,5.471" fill="#243238"/>
            </g>
            <g clip-path="url(#b8d22e45-d0de-43cf-9c2d-d1e75d8c4f04)">
              <path d="M161.554,190.477a8.706,8.706,0,0,1-.93-.34c-.05-.02-.11-.05-.17-.08a.035.035,0,0,1-.02-.01,8.04,8.04,0,0,1-2.138-1.44l-.02-.02c-.04-.04-.08-.07-.12-.11a.462.462,0,0,0-.07-.07l-.07-.07-.11-.11c-.01-.01-.02-.01-.02-.02a8.281,8.281,0,0,1-1.519-2.3.076.076,0,0,1-.02-.04c-.03-.08-.06-.15-.09-.23-.02-.04-.03-.07-.05-.11a.76.76,0,0,0-.04-.11c-.11-.32-.21-.64-.29-.96a11.241,11.241,0,0,1-9.074-5.45,16.655,16.655,0,0,0-.359,3.46v.6c0,.07.009.15.009.23,0,.06.01.12.01.18s.01.15.02.21a1.087,1.087,0,0,1,.01.18c.01.07.01.14.02.21a1.087,1.087,0,0,1,.01.18,1.646,1.646,0,0,1,.02.21c.01.06.01.12.02.18s.02.15.03.22c.01.05.01.11.02.17.02.12.04.25.06.37.01.05.02.11.03.17.02.08.02.14.04.22a1.286,1.286,0,0,0,.04.19c.02.07.02.13.04.2s.03.13.05.19.03.13.05.19.03.13.05.2.03.12.05.18a1.462,1.462,0,0,0,.05.2,1.209,1.209,0,0,0,.05.18c.01.07.04.13.05.2a1.209,1.209,0,0,1,.05.18c.02.07.04.13.06.2a1.293,1.293,0,0,0,.07.21c.04.12.08.23.11.34.02.05.04.11.06.17a1.192,1.192,0,0,0,.08.2.851.851,0,0,1,.06.17,1.192,1.192,0,0,0,.08.2c.02.05.05.11.07.16.03.07.05.14.08.2s.05.11.07.16c.009.03.029.07.039.1.02.05.05.11.08.17s.05.11.08.17a1.627,1.627,0,0,1,.11.23c.02.04.05.09.07.14.01.01.01.04.03.05a2.256,2.256,0,0,1,.11.22.826.826,0,0,0,.07.13c.07.13.14.25.21.38s.14.24.22.36a.444.444,0,0,0,.08.11l.15.24c.03.04.06.09.09.14.05.08.1.14.15.22.03.04.059.09.1.14.05.07.1.14.14.21a1.7,1.7,0,0,1,.1.14l.15.21c.03.04.06.08.1.13.06.08.11.15.17.22.03.04.05.07.08.11.08.11.18.21.26.32a.077.077,0,0,1,.02.03c.08.1.16.19.24.28.03.04.06.07.09.11.06.07.119.14.179.2l.11.11c.05.05.1.11.15.15l.03.03a497582161911.5,497582161911.5,0,0,1,.14.14l.17.17c.01.01.02.01.02.02.02.02.05.04.08.07.15.15.31.29.48.44h.01a11.265,11.265,0,0,0,9.284-5.13" fill="#3b4b54"/>
            </g>
            <g clip-path="url(#b8d22e45-d0de-43cf-9c2d-d1e75d8c4f04)">
              <path d="M169.375,188.177a7.685,7.685,0,0,1-.759.63c-.05.04-.1.07-.15.11a.031.031,0,0,1-.02.01,8.324,8.324,0,0,1-2.319,1.13c-.01,0-.02.01-.03.01-.05.01-.11.03-.159.04-.03.01-.06.01-.09.02s-.06.01-.09.02a.936.936,0,0,0-.16.04c-.01,0-.02.01-.03.01a8.236,8.236,0,0,1-2.748.16c-.01,0-.04,0-.05-.01l-.24-.03c-.04-.01-.08-.01-.12-.02a.425.425,0,0,0-.11-.02c-.33-.06-.65-.14-.969-.23a11.257,11.257,0,0,1-9.264,5.13,17.153,17.153,0,0,0,2.818,2.05l.02.02c.09.05.18.11.27.15a.251.251,0,0,1,.07.04c.01,0,.01.01.02.01.02.02.04.02.07.04s.049.03.079.04c.07.04.14.07.2.11a1.29,1.29,0,0,1,.16.09c.06.03.13.07.19.1s.11.05.17.08.13.06.19.09a1.3,1.3,0,0,1,.17.08,1.667,1.667,0,0,0,.2.08c.05.02.11.05.169.08a1.8,1.8,0,0,0,.21.08,1.111,1.111,0,0,1,.16.07c.11.04.24.09.35.14.05.02.11.04.16.06a1.8,1.8,0,0,1,.21.08l.18.06c.06.02.13.04.19.06s.129.04.189.06.12.04.19.06a1.332,1.332,0,0,0,.19.05c.06.01.12.04.18.05s.13.04.2.05a1.163,1.163,0,0,0,.18.04c.07.02.13.03.2.05s.12.03.18.04.129.03.2.05a1.742,1.742,0,0,1,.22.05c.11.02.24.05.35.07.06.01.11.02.18.03a1.552,1.552,0,0,1,.21.04,1.01,1.01,0,0,1,.17.03c.07.01.15.02.21.03s.109.01.169.02a1.646,1.646,0,0,0,.21.02.985.985,0,0,0,.17.02c.04,0,.08.01.11.01a1.087,1.087,0,0,0,.18.01c.06.01.12.01.19.02a2.175,2.175,0,0,0,.26.01c.05,0,.1.01.15.01h.06c.079,0,.169.01.249.01.04,0,.1.01.14.01.15,0,.29.01.43.01s.28,0,.42-.01a.66.66,0,0,0,.14-.01c.1,0,.189-.01.289-.01.05,0,.11-.01.16-.01a2.26,2.26,0,0,1,.26-.01c.05-.01.11-.01.17-.02.08-.01.17-.01.25-.02.05-.01.11-.01.17-.02l.24-.03c.05-.01.1-.01.14-.02.1-.02.209-.03.309-.04a.615.615,0,0,1,.13-.01c.14-.02.27-.04.41-.07.02,0,.02-.01.04-.01.12-.02.24-.05.37-.07l.14-.03a2.6,2.6,0,0,0,.269-.06.936.936,0,0,0,.16-.04c.07-.02.14-.03.21-.05.01,0,.03-.01.04-.01.03-.01.07-.01.1-.02l.09-.02.23-.06c.01,0,.02-.01.03-.01.03-.01.07-.02.1-.03.2-.06.409-.12.619-.19l.01-.01a11.187,11.187,0,0,0,.19-10.57" fill="#0883a5"/>
            </g>
            <g clip-path="url(#b8d22e45-d0de-43cf-9c2d-d1e75d8c4f04)">
              <path d="M171.262,180.536a7.952,7.952,0,0,1,.171.987,1.011,1.011,0,0,1,.011.182v.02a8.056,8.056,0,0,1-.182,2.589c0,.01-.01.02-.01.03a.947.947,0,0,1-.04.161.3.3,0,0,0-.02.091c-.01.03-.01.06-.02.09a.962.962,0,0,0-.041.162c0,.01-.01.01-.01.03a8.062,8.062,0,0,1-1.248,2.478c-.01.01-.02.03-.03.04-.051.071-.1.131-.151.2a.711.711,0,0,1-.081.1c-.02.031-.05.051-.07.081a7.818,7.818,0,0,1-.685.735,11.327,11.327,0,0,1-.191,10.648,18.492,18.492,0,0,0,3.2-1.42.031.031,0,0,1,.02-.01c.091-.05.182-.111.272-.161a.177.177,0,0,1,.071-.041.01.01,0,0,0,.01-.01c.02-.02.05-.02.06-.04a.9.9,0,0,0,.091-.05c.06-.041.131-.081.191-.121s.1-.071.151-.1l.181-.121c.051-.04.1-.07.151-.111s.111-.08.171-.12.1-.071.151-.111.111-.081.172-.131c.04-.041.1-.071.141-.111.06-.05.12-.091.181-.141a1.577,1.577,0,0,1,.141-.111l.3-.242a1.55,1.55,0,0,0,.131-.121c.05-.04.12-.1.171-.141a1.8,1.8,0,0,0,.141-.131c.05-.05.1-.09.151-.141a1.875,1.875,0,0,0,.141-.141c.04-.05.1-.09.151-.141s.1-.09.141-.141l.14-.141.151-.151c.041-.05.091-.09.141-.141a.989.989,0,0,1,.141-.141c.041-.04.081-.091.131-.141s.091-.1.141-.151.1-.111.151-.171c.081-.091.161-.182.232-.272a.8.8,0,0,0,.11-.141,2.056,2.056,0,0,1,.141-.161,1.25,1.25,0,0,0,.111-.142,1.811,1.811,0,0,0,.131-.171,1.782,1.782,0,0,0,.111-.141c.04-.06.08-.111.131-.181.04-.051.07-.091.11-.141a.482.482,0,0,0,.061-.091c.04-.05.07-.1.111-.151s.07-.1.11-.151c.051-.071.091-.151.141-.212.03-.04.051-.08.081-.12a.207.207,0,0,1,.03-.051c.04-.07.091-.141.141-.211a.79.79,0,0,1,.08-.121c.081-.121.151-.252.222-.373s.141-.252.211-.373a.809.809,0,0,1,.071-.121c.05-.08.09-.171.141-.251a.51.51,0,0,1,.08-.142,1.658,1.658,0,0,0,.111-.241.518.518,0,0,1,.081-.151c.04-.071.07-.151.11-.232.02-.05.051-.1.071-.151.04-.081.07-.161.11-.242a.781.781,0,0,0,.061-.141c.04-.091.07-.181.111-.272.02-.04.03-.081.05-.121.05-.131.1-.262.141-.393.01-.01.01-.02.02-.03.04-.121.081-.232.121-.363.02-.04.03-.09.05-.131.03-.08.05-.181.081-.261.02-.051.03-.111.05-.152l.06-.211c.011-.01.011-.03.021-.051s.02-.06.03-.1.01-.061.02-.091c.02-.081.04-.151.06-.232,0-.01.01-.02.01-.03.01-.03.01-.07.02-.1l.152-.634v-.01a11.591,11.591,0,0,0-9.182-5.42" fill="#00aed1"/>
            </g>
            <g clip-path="url(#b8d22e45-d0de-43cf-9c2d-d1e75d8c4f04)">
              <path d="M166.333,174.707a8.706,8.706,0,0,1,.93.34c.05.02.11.05.17.08a.035.035,0,0,1,.02.01,8.285,8.285,0,0,1,2.138,1.44c.01.01.02.01.02.02.04.04.08.07.12.11a.462.462,0,0,0,.07.07l.07.07.11.11c.01.01.02.01.02.02a8.281,8.281,0,0,1,1.519,2.3c.01.02.02.03.02.05.03.08.06.15.09.23.02.04.03.08.05.12a.76.76,0,0,0,.04.11c.11.32.21.64.29.96a11.241,11.241,0,0,1,9.074,5.45,17.363,17.363,0,0,0,.36-3.46v-.6c0-.08-.01-.15-.01-.23,0-.06-.01-.12-.01-.18s-.01-.14-.02-.21-.01-.12-.02-.18a1.548,1.548,0,0,1-.01-.21c-.01-.06-.01-.12-.02-.18a1.646,1.646,0,0,1-.02-.21c-.01-.06-.01-.12-.02-.18s-.02-.15-.03-.22a.881.881,0,0,1-.02-.17c-.02-.12-.04-.25-.06-.37-.01-.05-.02-.11-.03-.17-.02-.08-.02-.15-.04-.22s-.02-.13-.04-.19-.02-.13-.04-.2a1.286,1.286,0,0,1-.04-.19c-.02-.06-.03-.13-.05-.19s-.03-.13-.05-.2a1.209,1.209,0,0,0-.05-.18c-.02-.07-.03-.13-.05-.2a1.209,1.209,0,0,0-.05-.18c-.01-.07-.04-.13-.05-.2s-.04-.12-.05-.18-.04-.13-.06-.2-.05-.14-.07-.21c-.04-.11-.08-.23-.11-.33-.02-.05-.04-.11-.06-.17a1.192,1.192,0,0,0-.08-.2.851.851,0,0,1-.06-.17,1.192,1.192,0,0,0-.08-.2c-.02-.05-.05-.11-.07-.16-.03-.07-.05-.14-.08-.2s-.05-.11-.069-.16c-.02-.03-.03-.07-.05-.1-.02-.05-.05-.11-.08-.17s-.05-.11-.08-.17a2.4,2.4,0,0,1-.11-.23c-.02-.04-.05-.09-.07-.14-.01-.01-.02-.04-.03-.05-.04-.08-.08-.15-.11-.22a.826.826,0,0,0-.07-.13c-.07-.13-.14-.25-.21-.38s-.14-.24-.22-.36a.444.444,0,0,0-.08-.11l-.15-.24c-.03-.05-.06-.09-.09-.14-.05-.07-.1-.14-.15-.22-.029-.04-.059-.09-.1-.14-.05-.07-.1-.14-.14-.21-.03-.05-.07-.09-.1-.14l-.15-.21c-.03-.04-.06-.08-.1-.13-.06-.08-.11-.15-.17-.22-.03-.04-.05-.07-.08-.11-.08-.11-.18-.21-.26-.32a.077.077,0,0,1-.02-.03c-.08-.1-.16-.19-.24-.28-.03-.04-.06-.07-.09-.11-.06-.07-.119-.14-.179-.2l-.11-.11c-.05-.05-.1-.11-.15-.15l-.03-.03-.07-.07-.07-.07-.17-.17-.02-.02c-.02-.02-.05-.04-.08-.07-.15-.15-.31-.3-.48-.44h-.01a11.207,11.207,0,0,0-9.274,5.1" fill="#027c68"/>
            </g>
            <g clip-path="url(#b8d22e45-d0de-43cf-9c2d-d1e75d8c4f04)">
              <path d="M158.013,176.017a6.678,6.678,0,0,1,.759-.63c.05-.04.1-.07.15-.11.01-.01.02-.01.02-.02a8.324,8.324,0,0,1,2.319-1.13c.01,0,.02-.01.03-.01.05-.01.11-.03.159-.04.03-.01.06-.01.09-.02a.292.292,0,0,1,.09-.02c.05-.02.11-.02.16-.04.01,0,.02-.01.03-.01a8.236,8.236,0,0,1,2.748-.16.075.075,0,0,1,.05.01l.24.03c.04.01.08.01.12.02a.41.41,0,0,0,.11.01c.33.06.65.14.969.23a11.257,11.257,0,0,1,9.264-5.13,17.757,17.757,0,0,0-2.818-2.05.031.031,0,0,0-.02-.01c-.09-.05-.18-.11-.27-.15a.251.251,0,0,1-.07-.04.01.01,0,0,1-.01-.01c-.02-.02-.05-.02-.07-.04s-.049-.03-.079-.04c-.07-.04-.14-.07-.2-.11s-.11-.05-.16-.08-.13-.07-.19-.1-.11-.05-.17-.08-.13-.06-.19-.09-.11-.05-.17-.08a1.667,1.667,0,0,0-.2-.08c-.05-.02-.11-.04-.169-.07a1.8,1.8,0,0,0-.21-.08c-.05-.02-.11-.05-.16-.07-.11-.05-.24-.09-.35-.14-.05-.02-.11-.04-.16-.06a1.8,1.8,0,0,1-.21-.08l-.18-.06c-.06-.02-.13-.04-.19-.06l-.189-.06c-.06-.02-.12-.04-.19-.06a1.332,1.332,0,0,0-.19-.05c-.06-.01-.12-.04-.18-.05a1.462,1.462,0,0,0-.2-.05,1.209,1.209,0,0,1-.18-.05c-.07-.01-.13-.03-.2-.04s-.12-.03-.18-.04-.129-.03-.2-.05a1.419,1.419,0,0,1-.22-.05c-.11-.02-.24-.04-.35-.07l-.17-.03a1.552,1.552,0,0,1-.21-.04,1.127,1.127,0,0,1-.18-.03l-.21-.03c-.059-.01-.109-.01-.169-.02s-.14-.01-.21-.02a1.028,1.028,0,0,0-.18-.01c-.04,0-.08-.01-.11-.01a1.087,1.087,0,0,0-.18-.01,1.148,1.148,0,0,0-.19-.01c-.08-.01-.17-.01-.26-.02-.05,0-.1-.01-.15-.01h-.06c-.079,0-.169-.01-.249-.01-.05,0-.1-.01-.14-.01-.14,0-.29-.01-.43-.01s-.28,0-.42.01a.66.66,0,0,0-.14.01c-.1,0-.189.01-.289.01-.05,0-.11.01-.16.01-.09.01-.17.01-.26.02a.97.97,0,0,1-.17.01c-.08.01-.17.01-.25.02a.915.915,0,0,1-.17.01l-.24.03c-.05.01-.1.01-.14.02-.1.02-.209.03-.309.04a.615.615,0,0,1-.13.01c-.14.02-.27.05-.41.07-.01,0-.02.01-.04.01-.12.02-.24.04-.37.07-.04.01-.09.02-.14.03-.09.01-.169.04-.269.06a.936.936,0,0,0-.16.04,1.6,1.6,0,0,0-.21.05c-.02,0-.03.01-.05.01s-.07.01-.1.02-.06.01-.09.02l-.23.06c-.01,0-.02.01-.03.01l-.1.03c-.21.06-.41.12-.619.19l-.01.01a11.223,11.223,0,0,0-.18,10.56" fill="#00b199"/>
            </g>
          </g>
        </g>
      </g>
    </g>
    <g>
      <g mask="url(#a8a6a3c9-0ad6-4ec9-8015-f74d17da6b19)">
        <rect x="397.675" y="166.107" width="32" height="32" fill="url(#a12b3025-2273-42e4-8a95-6a0d025a5b10)"/>
      </g>
      <path d="M423.175,180.107h-8.5l2.414-2.586-1.414-1.414-5,5,5,5,1.414-1.414-2.414-2.586h8.5a4.5,4.5,0,0,1,0,9h-4.5v2h4.5a6.5,6.5,0,0,0,0-13Z" fill="#032068"/>
    </g>
  </g>
</svg>
